<?xml version="1.0" encoding="UTF-8" standalone="no"?>
<!-- Created with Bouml (http://bouml.free.fr/) -->
<!DOCTYPE svg PUBLIC "-//W3C//DTD SVG 1.1//EN" "http://www.w3.org/Graphics/SVG/1.1/DTD/svg11.dtd">
<svg width="837" height="911" version="1.1" xmlns="http://www.w3.org/2000/svg">
<g>
	<rect fill="#cbcbcb" stroke="none" stroke-opacity="1" x="821" y="244" width="3" height="45" />
	<rect fill="#cbcbcb" stroke="none" stroke-opacity="1" x="709" y="286" width="115" height="3" />
	<rect fill="#ffffc0" stroke="black" stroke-width="1" stroke-opacity="1" x="705" y="240" width="116" height="46" />
	<text font-family="Helvetica" font-size="8" fill="#000000" xml:space="preserve" font-weight="bold" text-anchor="middle" x="763" y="250">Triangles</text>
	<line stroke="black" stroke-opacity="1" x1="705" y1="259" x2="821" y2="259" />
	<text font-family="Helvetica" font-size="8" fill="#000000" xml:space="preserve" font-weight="bold" x="709" y="269">-</text>
	<text font-family="Helvetica" font-size="8" fill="#000000" xml:space="preserve" x="721" y="269">type : TrianglesType</text>
	<line stroke="black" stroke-opacity="1" x1="705" y1="278" x2="821" y2="278" />
</g>
<g>
	<rect fill="#cbcbcb" stroke="none" stroke-opacity="1" x="598" y="157" width="3" height="33" />
	<rect fill="#cbcbcb" stroke="none" stroke-opacity="1" x="522" y="187" width="79" height="3" />
	<rect fill="#ffffc0" stroke="black" stroke-width="1" stroke-opacity="1" x="518" y="153" width="80" height="34" />
	<text font-family="Helvetica" font-size="8" fill="#000000" xml:space="preserve" font-weight="bold" text-anchor="middle" x="558" y="163">TrianglesType</text>
	<line stroke="black" stroke-opacity="1" x1="518" y1="172" x2="598" y2="172" />
	<line stroke="black" stroke-opacity="1" x1="518" y1="180" x2="598" y2="180" />
</g>
<g>
	<rect fill="#cbcbcb" stroke="none" stroke-opacity="1" x="362" y="354" width="3" height="79" />
	<rect fill="#cbcbcb" stroke="none" stroke-opacity="1" x="298" y="430" width="67" height="3" />
	<rect fill="#ffffc0" stroke="black" stroke-width="1" stroke-opacity="1" x="294" y="350" width="68" height="80" />
	<text font-family="Helvetica" font-size="8" fill="#000000" xml:space="preserve" font-weight="bold" text-anchor="middle" x="328" y="360">Triangle</text>
	<line stroke="black" stroke-opacity="1" x1="294" y1="369" x2="362" y2="369" />
	<text font-family="Helvetica" font-size="8" fill="#000000" xml:space="preserve" font-weight="bold" x="298" y="379">-</text>
	<text font-family="Helvetica" font-size="8" fill="#000000" xml:space="preserve" x="310" y="379">p1 : IPoint</text>
	<text font-family="Helvetica" font-size="8" fill="#000000" xml:space="preserve" font-weight="bold" x="298" y="396">-</text>
	<text font-family="Helvetica" font-size="8" fill="#000000" xml:space="preserve" x="310" y="396">p2 : IPoint</text>
	<text font-family="Helvetica" font-size="8" fill="#000000" xml:space="preserve" font-weight="bold" x="298" y="413">-</text>
	<text font-family="Helvetica" font-size="8" fill="#000000" xml:space="preserve" x="310" y="413">p3 : IPoint</text>
	<line stroke="black" stroke-opacity="1" x1="294" y1="422" x2="362" y2="422" />
</g>
<g>
	<rect fill="#cbcbcb" stroke="none" stroke-opacity="1" x="121" y="134" width="3" height="33" />
	<rect fill="#cbcbcb" stroke="none" stroke-opacity="1" x="77" y="164" width="47" height="3" />
	<rect fill="#ffffc0" stroke="black" stroke-width="1" stroke-opacity="1" x="73" y="130" width="48" height="34" />
	<text font-family="Helvetica" font-size="8" fill="#000000" xml:space="preserve" font-weight="bold" text-anchor="middle" x="97" y="140">IVoisins</text>
	<line stroke="black" stroke-opacity="1" x1="73" y1="149" x2="121" y2="149" />
	<line stroke="black" stroke-opacity="1" x1="73" y1="157" x2="121" y2="157" />
</g>
<g>
	<rect fill="#cbcbcb" stroke="none" stroke-opacity="1" x="119" y="53" width="3" height="33" />
	<rect fill="#cbcbcb" stroke="none" stroke-opacity="1" x="77" y="83" width="45" height="3" />
	<rect fill="#ffffc0" stroke="black" stroke-width="1" stroke-opacity="1" x="73" y="49" width="46" height="34" />
	<text font-family="Helvetica" font-size="8" fill="#000000" xml:space="preserve" font-weight="bold" text-anchor="middle" x="96" y="59">Voisins</text>
	<line stroke="black" stroke-opacity="1" x1="73" y1="68" x2="119" y2="68" />
	<line stroke="black" stroke-opacity="1" x1="73" y1="76" x2="119" y2="76" />
</g>
<g>
	<rect fill="#cbcbcb" stroke="none" stroke-opacity="1" x="397" y="29" width="3" height="113" />
	<rect fill="#cbcbcb" stroke="none" stroke-opacity="1" x="233" y="139" width="167" height="3" />
	<rect fill="#ffffc0" stroke="black" stroke-width="1" stroke-opacity="1" x="229" y="25" width="168" height="114" />
	<text font-family="Helvetica" font-size="8" fill="#000000" xml:space="preserve" font-weight="bold" text-anchor="middle" x="313" y="35">IVertex</text>
	<line stroke="black" stroke-opacity="1" x1="229" y1="44" x2="397" y2="44" />
	<line stroke="black" stroke-opacity="1" x1="229" y1="52" x2="397" y2="52" />
	<text font-family="Helvetica" font-size="8" fill="#000000" xml:space="preserve" font-weight="bold" x="233" y="62">+</text>
	<text font-family="Helvetica" font-size="8" fill="#000000" xml:space="preserve" x="245" y="62">getLatitude() : double</text>
	<text font-family="Helvetica" font-size="8" fill="#000000" xml:space="preserve" font-weight="bold" x="233" y="79">+</text>
	<text font-family="Helvetica" font-size="8" fill="#000000" xml:space="preserve" x="245" y="79">getLongitude() : double</text>
	<text font-family="Helvetica" font-size="8" fill="#000000" xml:space="preserve" font-weight="bold" x="233" y="96">+</text>
	<text font-family="Helvetica" font-size="8" fill="#000000" xml:space="preserve" x="245" y="96">getRelativeLatitude() : double</text>
	<text font-family="Helvetica" font-size="8" fill="#000000" xml:space="preserve" font-weight="bold" x="233" y="113">+</text>
	<text font-family="Helvetica" font-size="8" fill="#000000" xml:space="preserve" x="245" y="113">getRelativeLongitude() : double</text>
	<text font-family="Helvetica" font-size="8" fill="#000000" xml:space="preserve" font-weight="bold" x="233" y="130">+</text>
	<text font-family="Helvetica" font-size="8" fill="#000000" xml:space="preserve" x="245" y="130">getPoint() : List&lt;IPoint&gt;</text>
</g>
<g>
	<rect fill="#cbcbcb" stroke="none" stroke-opacity="1" x="593" y="29" width="3" height="113" />
	<rect fill="#cbcbcb" stroke="none" stroke-opacity="1" x="455" y="139" width="141" height="3" />
	<rect fill="#ffffc0" stroke="black" stroke-width="1" stroke-opacity="1" x="451" y="25" width="142" height="114" />
	<text font-family="Helvetica" font-size="8" fill="#000000" xml:space="preserve" font-weight="bold" text-anchor="middle" x="522" y="35">Vertex</text>
	<line stroke="black" stroke-opacity="1" x1="451" y1="44" x2="593" y2="44" />
	<text font-family="Helvetica" font-size="8" fill="#000000" xml:space="preserve" font-weight="bold" x="455" y="54">-</text>
	<text font-family="Helvetica" font-size="8" fill="#000000" xml:space="preserve" x="467" y="54">latitude : double</text>
	<text font-family="Helvetica" font-size="8" fill="#000000" xml:space="preserve" font-weight="bold" x="455" y="71">-</text>
	<text font-family="Helvetica" font-size="8" fill="#000000" xml:space="preserve" x="467" y="71">longitude : double</text>
	<text font-family="Helvetica" font-size="8" fill="#000000" xml:space="preserve" font-weight="bold" x="455" y="88">-</text>
	<text font-family="Helvetica" font-size="8" fill="#000000" xml:space="preserve" x="467" y="88">relativeLatitude : double</text>
	<text font-family="Helvetica" font-size="8" fill="#000000" xml:space="preserve" font-weight="bold" x="455" y="105">-</text>
	<text font-family="Helvetica" font-size="8" fill="#000000" xml:space="preserve" x="467" y="105">relativeLongitude : double</text>
	<text font-family="Helvetica" font-size="8" fill="#000000" xml:space="preserve" font-weight="bold" x="455" y="122">-</text>
	<text font-family="Helvetica" font-size="8" fill="#000000" xml:space="preserve" x="467" y="122">list : List&lt;IPoint&gt;</text>
	<line stroke="black" stroke-opacity="1" x1="451" y1="131" x2="593" y2="131" />
</g>
<g>
	<rect fill="#cbcbcb" stroke="none" stroke-opacity="1" x="177" y="483" width="3" height="163" />
	<rect fill="#cbcbcb" stroke="none" stroke-opacity="1" x="23" y="643" width="157" height="3" />
	<rect fill="#ffffc0" stroke="black" stroke-width="1" stroke-opacity="1" x="19" y="479" width="158" height="164" />
	<text font-family="Helvetica" font-size="8" fill="#000000" xml:space="preserve" font-weight="bold" text-anchor="middle" x="98" y="489">IBounds</text>
	<line stroke="black" stroke-opacity="1" x1="19" y1="498" x2="177" y2="498" />
	<line stroke="black" stroke-opacity="1" x1="19" y1="506" x2="177" y2="506" />
	<text font-family="Helvetica" font-size="8" fill="#000000" xml:space="preserve" font-weight="bold" x="23" y="516">+</text>
	<text font-family="Helvetica" font-size="8" fill="#000000" xml:space="preserve" x="35" y="516">getMinLat() : double</text>
	<text font-family="Helvetica" font-size="8" fill="#000000" xml:space="preserve" font-weight="bold" x="23" y="533">+</text>
	<text font-family="Helvetica" font-size="8" fill="#000000" xml:space="preserve" x="35" y="533">setMinLat(minLat : double)</text>
	<text font-family="Helvetica" font-size="8" fill="#000000" xml:space="preserve" font-weight="bold" x="23" y="550">+</text>
	<text font-family="Helvetica" font-size="8" fill="#000000" xml:space="preserve" x="35" y="550">getMinLon() : double</text>
	<text font-family="Helvetica" font-size="8" fill="#000000" xml:space="preserve" font-weight="bold" x="23" y="567">+</text>
	<text font-family="Helvetica" font-size="8" fill="#000000" xml:space="preserve" x="35" y="567">setMinLon(minLon : double)</text>
	<text font-family="Helvetica" font-size="8" fill="#000000" xml:space="preserve" font-weight="bold" x="23" y="584">+</text>
	<text font-family="Helvetica" font-size="8" fill="#000000" xml:space="preserve" x="35" y="584">getMaxLat() : double</text>
	<text font-family="Helvetica" font-size="8" fill="#000000" xml:space="preserve" font-weight="bold" x="23" y="601">+</text>
	<text font-family="Helvetica" font-size="8" fill="#000000" xml:space="preserve" x="35" y="601">setMaxLat(maxLat : double)</text>
	<text font-family="Helvetica" font-size="8" fill="#000000" xml:space="preserve" font-weight="bold" x="23" y="618">+</text>
	<text font-family="Helvetica" font-size="8" fill="#000000" xml:space="preserve" x="35" y="618">getMaxLon() : double</text>
	<text font-family="Helvetica" font-size="8" fill="#000000" xml:space="preserve" font-weight="bold" x="23" y="635">+</text>
	<text font-family="Helvetica" font-size="8" fill="#000000" xml:space="preserve" x="35" y="635">setMaxLon(maxLon : double)</text>
</g>
<g>
	<rect fill="#cbcbcb" stroke="none" stroke-opacity="1" x="787" y="386" width="3" height="33" />
	<rect fill="#cbcbcb" stroke="none" stroke-opacity="1" x="711" y="416" width="79" height="3" />
	<rect fill="#ffffc0" stroke="black" stroke-width="1" stroke-opacity="1" x="707" y="382" width="80" height="34" />
	<text font-family="Helvetica" font-size="8" fill="#000000" xml:space="preserve" font-weight="bold" text-anchor="middle" x="747" y="392">StructureType</text>
	<line stroke="black" stroke-opacity="1" x1="707" y1="401" x2="787" y2="401" />
	<line stroke="black" stroke-opacity="1" x1="707" y1="409" x2="787" y2="409" />
</g>
<g>
	<rect fill="#cbcbcb" stroke="none" stroke-opacity="1" x="168" y="353" width="3" height="95" />
	<rect fill="#cbcbcb" stroke="none" stroke-opacity="1" x="30" y="445" width="141" height="3" />
	<rect fill="#ffffc0" stroke="black" stroke-width="1" stroke-opacity="1" x="26" y="349" width="142" height="96" />
	<text font-family="Helvetica" font-size="8" fill="#000000" xml:space="preserve" font-weight="bold" text-anchor="middle" x="97" y="359">Point.</text>
	<line stroke="black" stroke-opacity="1" x1="26" y1="368" x2="168" y2="368" />
	<text font-family="Helvetica" font-size="8" fill="#000000" xml:space="preserve" font-weight="bold" x="30" y="378">-</text>
	<text font-family="Helvetica" font-size="8" fill="#000000" xml:space="preserve" x="42" y="378">latitude : double</text>
	<text font-family="Helvetica" font-size="8" fill="#000000" xml:space="preserve" font-weight="bold" x="30" y="395">-</text>
	<text font-family="Helvetica" font-size="8" fill="#000000" xml:space="preserve" x="42" y="395">longitude : double</text>
	<text font-family="Helvetica" font-size="8" fill="#000000" xml:space="preserve" font-weight="bold" x="30" y="412">-</text>
	<text font-family="Helvetica" font-size="8" fill="#000000" xml:space="preserve" x="42" y="412">relativeLatitude : double</text>
	<text font-family="Helvetica" font-size="8" fill="#000000" xml:space="preserve" font-weight="bold" x="30" y="429">-</text>
	<text font-family="Helvetica" font-size="8" fill="#000000" xml:space="preserve" x="42" y="429">relativeLongitude : double</text>
	<line stroke="black" stroke-opacity="1" x1="26" y1="438" x2="168" y2="438" />
</g>
<g>
	<rect fill="#cbcbcb" stroke="none" stroke-opacity="1" x="343" y="513" width="3" height="95" />
	<rect fill="#cbcbcb" stroke="none" stroke-opacity="1" x="249" y="605" width="97" height="3" />
	<rect fill="#ffffc0" stroke="black" stroke-width="1" stroke-opacity="1" x="245" y="509" width="98" height="96" />
	<text font-family="Helvetica" font-size="8" fill="#000000" xml:space="preserve" font-weight="bold" text-anchor="middle" x="294" y="519">Bounds</text>
	<line stroke="black" stroke-opacity="1" x1="245" y1="528" x2="343" y2="528" />
	<text font-family="Helvetica" font-size="8" fill="#000000" xml:space="preserve" font-weight="bold" x="249" y="538">-</text>
	<text font-family="Helvetica" font-size="8" fill="#000000" xml:space="preserve" x="261" y="538">minLat : double</text>
	<text font-family="Helvetica" font-size="8" fill="#000000" xml:space="preserve" font-weight="bold" x="249" y="555">-</text>
	<text font-family="Helvetica" font-size="8" fill="#000000" xml:space="preserve" x="261" y="555">minLon : double</text>
	<text font-family="Helvetica" font-size="8" fill="#000000" xml:space="preserve" font-weight="bold" x="249" y="572">-</text>
	<text font-family="Helvetica" font-size="8" fill="#000000" xml:space="preserve" x="261" y="572">maxLat : double</text>
	<text font-family="Helvetica" font-size="8" fill="#000000" xml:space="preserve" font-weight="bold" x="249" y="589">-</text>
	<text font-family="Helvetica" font-size="8" fill="#000000" xml:space="preserve" x="261" y="589">maxLon : double</text>
	<line stroke="black" stroke-opacity="1" x1="245" y1="598" x2="343" y2="598" />
</g>
<g>
	<rect fill="#cbcbcb" stroke="none" stroke-opacity="1" x="402" y="219" width="3" height="95" />
	<rect fill="#cbcbcb" stroke="none" stroke-opacity="1" x="252" y="311" width="153" height="3" />
	<rect fill="#ffffc0" stroke="black" stroke-width="1" stroke-opacity="1" x="248" y="215" width="154" height="96" />
	<text font-family="Helvetica" font-size="8" fill="#000000" xml:space="preserve" font-weight="bold" text-anchor="middle" x="325" y="225">ITriangle</text>
	<line stroke="black" stroke-opacity="1" x1="248" y1="234" x2="402" y2="234" />
	<line stroke="black" stroke-opacity="1" x1="248" y1="242" x2="402" y2="242" />
	<text font-family="Helvetica" font-size="8" fill="#000000" xml:space="preserve" font-weight="bold" x="252" y="252">+</text>
	<text font-family="Helvetica" font-size="8" fill="#000000" xml:space="preserve" x="264" y="252">getP1() : IPoint</text>
	<text font-family="Helvetica" font-size="8" fill="#000000" xml:space="preserve" font-weight="bold" x="252" y="269">+</text>
	<text font-family="Helvetica" font-size="8" fill="#000000" xml:space="preserve" x="264" y="269">getP2() : IPoint</text>
	<text font-family="Helvetica" font-size="8" fill="#000000" xml:space="preserve" font-weight="bold" x="252" y="286">+</text>
	<text font-family="Helvetica" font-size="8" fill="#000000" xml:space="preserve" x="264" y="286">getP3() : IPoint</text>
	<text font-family="Helvetica" font-size="8" fill="#000000" xml:space="preserve" font-weight="bold" x="252" y="303">+</text>
	<text font-family="Helvetica" font-size="8" fill="#000000" xml:space="preserve" x="264" y="303">fill(vertexBuffer : FloatBuffer)</text>
</g>
<g>
	<rect fill="#cbcbcb" stroke="none" stroke-opacity="1" x="651" y="497" width="3" height="197" />
	<rect fill="#cbcbcb" stroke="none" stroke-opacity="1" x="469" y="691" width="185" height="3" />
	<rect fill="#ffffc0" stroke="black" stroke-width="1" stroke-opacity="1" x="465" y="493" width="186" height="198" />
	<text font-family="Helvetica" font-size="8" fill="#000000" xml:space="preserve" font-weight="bold" text-anchor="middle" x="558" y="503">IStructures</text>
	<line stroke="black" stroke-opacity="1" x1="465" y1="512" x2="651" y2="512" />
	<line stroke="black" stroke-opacity="1" x1="465" y1="520" x2="651" y2="520" />
	<text font-family="Helvetica" font-size="8" fill="#000000" xml:space="preserve" font-weight="bold" x="469" y="530">+</text>
	<text font-family="Helvetica" font-size="8" fill="#000000" xml:space="preserve" x="481" y="530">add(structure : T)</text>
	<text font-family="Helvetica" font-size="8" fill="#000000" xml:space="preserve" font-weight="bold" x="469" y="547">+</text>
	<text font-family="Helvetica" font-size="8" fill="#000000" xml:space="preserve" x="481" y="547">get(id : long) : T</text>
	<text font-family="Helvetica" font-size="8" fill="#000000" xml:space="preserve" font-weight="bold" x="469" y="564">+</text>
	<text font-family="Helvetica" font-size="8" fill="#000000" xml:space="preserve" x="481" y="564">clear()</text>
	<text font-family="Helvetica" font-size="8" fill="#000000" xml:space="preserve" font-weight="bold" x="469" y="581">+</text>
	<text font-family="Helvetica" font-size="8" fill="#000000" xml:space="preserve" x="481" y="581">isEmpty() : bool</text>
	<text font-family="Helvetica" font-size="8" fill="#000000" xml:space="preserve" font-weight="bold" x="469" y="598">+</text>
	<text font-family="Helvetica" font-size="8" fill="#000000" xml:space="preserve" x="481" y="598">done()</text>
	<text font-family="Helvetica" font-size="8" fill="#000000" xml:space="preserve" font-weight="bold" x="469" y="615">+</text>
	<text font-family="Helvetica" font-size="8" fill="#000000" xml:space="preserve" x="481" y="615">isLoaded() : bool</text>
	<text font-family="Helvetica" font-size="8" fill="#000000" xml:space="preserve" font-weight="bold" x="469" y="632">+</text>
	<text font-family="Helvetica" font-size="8" fill="#000000" xml:space="preserve" x="481" y="632">getFilledVertexBuffer() : FloatBuffer</text>
	<text font-family="Helvetica" font-size="8" fill="#000000" xml:space="preserve" font-weight="bold" x="469" y="649">+</text>
	<text font-family="Helvetica" font-size="8" fill="#000000" xml:space="preserve" x="481" y="649">getHoleVertexBuffer() : FloatBuffer</text>
	<text font-family="Helvetica" font-size="8" fill="#000000" xml:space="preserve" font-weight="bold" x="469" y="666">+</text>
	<text font-family="Helvetica" font-size="8" fill="#000000" xml:space="preserve" x="481" y="666">getFilledIndexCount() : int</text>
	<text font-family="Helvetica" font-size="8" fill="#000000" xml:space="preserve" font-weight="bold" x="469" y="683">+</text>
	<text font-family="Helvetica" font-size="8" fill="#000000" xml:space="preserve" x="481" y="683">getHoleIndexCount() : int</text>
</g>
<g>
	<rect fill="#cbcbcb" stroke="none" stroke-opacity="1" x="780" y="575" width="3" height="33" />
	<rect fill="#cbcbcb" stroke="none" stroke-opacity="1" x="738" y="605" width="45" height="3" />
	<rect fill="#ffffc0" stroke="black" stroke-width="1" stroke-opacity="1" x="734" y="571" width="46" height="34" />
	<text font-family="Helvetica" font-size="8" fill="#000000" xml:space="preserve" font-weight="bold" text-anchor="middle" x="757" y="581">Iterable</text>
	<line stroke="black" stroke-opacity="1" x1="734" y1="590" x2="780" y2="590" />
	<line stroke="black" stroke-opacity="1" x1="734" y1="598" x2="780" y2="598" />
</g>
<g>
	<line stroke-dasharray="4,4" stroke="black" stroke-opacity="1" x1="328" y1="349" x2="327" y2="320" />
	<line stroke="black" stroke-opacity="1" x1="327" y1="315" x2="321" y2="321" />
	<line stroke="black" stroke-opacity="1" x1="327" y1="315" x2="333" y2="320" />
	<line stroke="black" stroke-opacity="1" x1="321" y1="321" x2="333" y2="320" />
</g>
<g>
	<line stroke-dasharray="4,4" stroke="black" stroke-opacity="1" x1="98" y1="87" x2="98" y2="123" />
	<line stroke="black" stroke-opacity="1" x1="98" y1="129" x2="104" y2="123" />
	<line stroke="black" stroke-opacity="1" x1="98" y1="129" x2="92" y2="123" />
	<line stroke="black" stroke-opacity="1" x1="104" y1="123" x2="92" y2="123" />
</g>
<g>
	<line stroke-dasharray="4,4" stroke="black" stroke-opacity="1" x1="450" y1="84" x2="407" y2="84" />
	<line stroke="black" stroke-opacity="1" x1="401" y1="84" x2="407" y2="90" />
	<line stroke="black" stroke-opacity="1" x1="401" y1="84" x2="407" y2="78" />
	<line stroke="black" stroke-opacity="1" x1="407" y1="90" x2="407" y2="78" />
</g>
<g>
	<line stroke-dasharray="4,4" stroke="black" stroke-opacity="1" x1="244" y1="560" x2="187" y2="560" />
	<line stroke="black" stroke-opacity="1" x1="181" y1="560" x2="187" y2="566" />
	<line stroke="black" stroke-opacity="1" x1="181" y1="560" x2="187" y2="554" />
	<line stroke="black" stroke-opacity="1" x1="187" y1="566" x2="187" y2="554" />
</g>
<g>
	<line stroke="black" stroke-opacity="1" x1="655" y1="592" x2="727" y2="590" />
	<line stroke="black" stroke-opacity="1" x1="733" y1="590" x2="726" y2="584" />
	<line stroke="black" stroke-opacity="1" x1="733" y1="590" x2="727" y2="596" />
	<line stroke="black" stroke-opacity="1" x1="726" y1="584" x2="727" y2="596" />
</g>
<g>
	<line stroke="black" stroke-opacity="1" x1="562" y1="764" x2="561" y2="695" />
	<polygon fill="#000000" stroke="black" stroke-opacity="1" points="562,764 555,758 561,752 567,757" />
</g>
<g>
	<rect fill="#cbcbcb" stroke="none" stroke-opacity="1" x="647" y="358" width="3" height="95" />
	<rect fill="#cbcbcb" stroke="none" stroke-opacity="1" x="481" y="450" width="169" height="3" />
	<rect fill="#ffffc0" stroke="black" stroke-width="1" stroke-opacity="1" x="477" y="354" width="170" height="96" />
	<text font-family="Helvetica" font-size="8" fill="#000000" xml:space="preserve" font-weight="bold" text-anchor="middle" x="562" y="364">IStructure</text>
	<line stroke="black" stroke-opacity="1" x1="477" y1="373" x2="647" y2="373" />
	<line stroke="black" stroke-opacity="1" x1="477" y1="381" x2="647" y2="381" />
	<text font-family="Helvetica" font-size="8" fill="#000000" xml:space="preserve" font-weight="bold" x="481" y="391">+</text>
	<text font-family="Helvetica" font-size="8" fill="#000000" xml:space="preserve" x="493" y="391">getType() : StructureType</text>
	<text font-family="Helvetica" font-size="8" fill="#000000" xml:space="preserve" font-weight="bold" x="481" y="408">+</text>
	<text font-family="Helvetica" font-size="8" fill="#000000" xml:space="preserve" x="493" y="408">getName() : string</text>
	<text font-family="Helvetica" font-size="8" fill="#000000" xml:space="preserve" font-weight="bold" x="481" y="425">+</text>
	<text font-family="Helvetica" font-size="8" fill="#000000" xml:space="preserve" x="493" y="425">getTriangles() : List&lt;ITriangles&gt;</text>
	<text font-family="Helvetica" font-size="8" fill="#000000" xml:space="preserve" font-weight="bold" x="481" y="442">+</text>
	<text font-family="Helvetica" font-size="8" fill="#000000" xml:space="preserve" x="493" y="442">getId() : long</text>
</g>
<g>
	<line stroke="black" stroke-opacity="1" x1="651" y1="402" x2="706" y2="401" />
	<polygon fill="#ffffff" stroke="black" stroke-opacity="1" points="651,402 656,395 662,401 657,407" />
</g>
<g>
	<line stroke="black" stroke-opacity="1" x1="562" y1="454" x2="556" y2="460" />
	<line stroke="black" stroke-opacity="1" x1="562" y1="454" x2="568" y2="460" />
	<line stroke-dasharray="4,4" stroke="black" stroke-opacity="1" x1="562" y1="492" x2="562" y2="454" />
</g>
<g>
	<rect fill="#cbcbcb" stroke="none" stroke-opacity="1" x="632" y="243" width="3" height="45" />
	<rect fill="#cbcbcb" stroke="none" stroke-opacity="1" x="494" y="285" width="141" height="3" />
	<rect fill="#ffffc0" stroke="black" stroke-width="1" stroke-opacity="1" x="490" y="239" width="142" height="46" />
	<text font-family="Helvetica" font-size="8" fill="#000000" xml:space="preserve" font-weight="bold" text-anchor="middle" x="561" y="249">ITriangles</text>
	<line stroke="black" stroke-opacity="1" x1="490" y1="258" x2="632" y2="258" />
	<line stroke="black" stroke-opacity="1" x1="490" y1="266" x2="632" y2="266" />
	<text font-family="Helvetica" font-size="8" fill="#000000" xml:space="preserve" font-weight="bold" x="494" y="276">+</text>
	<text font-family="Helvetica" font-size="8" fill="#000000" xml:space="preserve" x="506" y="276">getType() : TrianglesType</text>
</g>
<g>
	<line stroke="black" stroke-opacity="1" x1="489" y1="264" x2="412" y2="264" />
	<line stroke="black" stroke-opacity="1" x1="406" y1="264" x2="412" y2="270" />
	<line stroke="black" stroke-opacity="1" x1="406" y1="264" x2="412" y2="258" />
	<line stroke="black" stroke-opacity="1" x1="412" y1="270" x2="412" y2="258" />
</g>
<g>
	<line stroke-dasharray="4,4" stroke="black" stroke-opacity="1" x1="704" y1="264" x2="642" y2="264" />
	<line stroke="black" stroke-opacity="1" x1="636" y1="264" x2="642" y2="270" />
	<line stroke="black" stroke-opacity="1" x1="636" y1="264" x2="642" y2="258" />
	<line stroke="black" stroke-opacity="1" x1="642" y1="270" x2="642" y2="258" />
</g>
<g>
	<line stroke="black" stroke-opacity="1" x1="563" y1="353" x2="563" y2="289" />
	<polygon fill="#ffffff" stroke="black" stroke-opacity="1" points="563,353 557,347 563,341 569,347" />
</g>
<g>
	<line stroke="black" stroke-opacity="1" x1="561" y1="238" x2="560" y2="191" />
	<polygon fill="#ffffff" stroke="black" stroke-opacity="1" points="561,238 554,232 560,226 566,231" />
</g>
<g>
	<rect fill="#cbcbcb" stroke="none" stroke-opacity="1" x="184" y="221" width="3" height="95" />
	<rect fill="#cbcbcb" stroke="none" stroke-opacity="1" x="20" y="313" width="167" height="3" />
	<rect fill="#ffffc0" stroke="black" stroke-width="1" stroke-opacity="1" x="16" y="217" width="168" height="96" />
	<text font-family="Helvetica" font-size="8" fill="#000000" xml:space="preserve" font-weight="bold" text-anchor="middle" x="100" y="227">IPoint</text>
	<line stroke="black" stroke-opacity="1" x1="16" y1="236" x2="184" y2="236" />
	<line stroke="black" stroke-opacity="1" x1="16" y1="244" x2="184" y2="244" />
	<text font-family="Helvetica" font-size="8" fill="#000000" xml:space="preserve" font-weight="bold" x="20" y="254">+</text>
	<text font-family="Helvetica" font-size="8" fill="#000000" xml:space="preserve" x="32" y="254">getLongitude() : double</text>
	<text font-family="Helvetica" font-size="8" fill="#000000" xml:space="preserve" font-weight="bold" x="20" y="271">+</text>
	<text font-family="Helvetica" font-size="8" fill="#000000" xml:space="preserve" x="32" y="271">getLatitude() : double</text>
	<text font-family="Helvetica" font-size="8" fill="#000000" xml:space="preserve" font-weight="bold" x="20" y="288">+</text>
	<text font-family="Helvetica" font-size="8" fill="#000000" xml:space="preserve" x="32" y="288">getRelativeLongitude() : double</text>
	<text font-family="Helvetica" font-size="8" fill="#000000" xml:space="preserve" font-weight="bold" x="20" y="305">+</text>
	<text font-family="Helvetica" font-size="8" fill="#000000" xml:space="preserve" x="32" y="305">getRelativeLatitude() : double</text>
</g>
<g>
	<line stroke-dasharray="4,4" stroke="black" stroke-opacity="1" x1="99" y1="348" x2="99" y2="323" />
	<line stroke="black" stroke-opacity="1" x1="99" y1="317" x2="93" y2="323" />
	<line stroke="black" stroke-opacity="1" x1="99" y1="317" x2="105" y2="323" />
	<line stroke="black" stroke-opacity="1" x1="93" y1="323" x2="105" y2="323" />
</g>
<g>
	<line stroke="black" stroke-opacity="1" x1="99" y1="168" x2="99" y2="210" />
	<line stroke="black" stroke-opacity="1" x1="99" y1="216" x2="105" y2="210" />
	<line stroke="black" stroke-opacity="1" x1="99" y1="216" x2="93" y2="210" />
	<line stroke="black" stroke-opacity="1" x1="105" y1="210" x2="93" y2="210" />
</g>
<g>
	<line stroke="black" stroke-opacity="1" x1="247" y1="265" x2="188" y2="265" />
	<polygon fill="#ffffff" stroke="black" stroke-opacity="1" points="247,265 241,271 235,265 241,259" />
</g>
<g>
	<line stroke="black" stroke-opacity="1" x1="241" y1="143" x2="156" y2="216" />
	<polygon fill="#ffffff" stroke="black" stroke-opacity="1" points="241,143 240,151 231,150 232,142" />
</g>
<g>
	<text font-family="Helvetica" font-size="8" fill="#000000" xml:space="preserve" x="548" y="302">1</text>
</g>
<g>
	<text font-family="Helvetica" font-size="8" fill="#000000" xml:space="preserve" x="538" y="343">1..*</text>
</g>
<g>
	<text font-family="Helvetica" font-size="8" fill="#000000" xml:space="preserve" x="692" y="416">*</text>
</g>
<g>
	<text font-family="Helvetica" font-size="8" fill="#000000" xml:space="preserve" x="661" y="416">1</text>
</g>
<g>
	<text font-family="Helvetica" font-size="8" fill="#000000" xml:space="preserve" x="549" y="206">*</text>
</g>
<g>
	<text font-family="Helvetica" font-size="8" fill="#000000" xml:space="preserve" x="547" y="228">1</text>
</g>
<g>
	<text font-family="Helvetica" font-size="8" fill="#000000" xml:space="preserve" x="198" y="278">*</text>
</g>
<g>
	<text font-family="Helvetica" font-size="8" fill="#000000" xml:space="preserve" x="221" y="278">1..*</text>
</g>
<g>
	<text font-family="Helvetica" font-size="8" fill="#000000" xml:space="preserve" x="166" y="223">*</text>
</g>
<g>
	<text font-family="Helvetica" font-size="8" fill="#000000" xml:space="preserve" x="221" y="144">1..*</text>
</g>
</svg>
