<?xml version="1.0" encoding="UTF-8" standalone="no"?>
<!-- Created with Bouml (http://bouml.free.fr/) -->
<!DOCTYPE svg PUBLIC "-//W3C//DTD SVG 1.1//EN" "http://www.w3.org/Graphics/SVG/1.1/DTD/svg11.dtd">
<svg width="663" height="398" version="1.1" xmlns="http://www.w3.org/2000/svg">
<g>
	<rect fill="#cbcbcb" stroke="none" stroke-opacity="1" x="481" y="256" width="3" height="129" />
	<rect fill="#cbcbcb" stroke="none" stroke-opacity="1" x="395" y="382" width="89" height="3" />
	<rect fill="#ffffc0" stroke="black" stroke-width="1" stroke-opacity="1" x="391" y="252" width="90" height="130" />
	<text font-family="Helvetica" font-size="8" fill="#000000" xml:space="preserve" font-weight="bold" text-anchor="middle" x="436" y="262">YNode</text>
	<line stroke="black" stroke-opacity="1" x1="391" y1="271" x2="481" y2="271" />
	<text font-family="Helvetica" font-size="8" fill="#000000" xml:space="preserve" font-weight="bold" x="395" y="281">-</text>
	<text font-family="Helvetica" font-size="8" fill="#000000" xml:space="preserve" x="407" y="281">x1 : double</text>
	<text font-family="Helvetica" font-size="8" fill="#000000" xml:space="preserve" font-weight="bold" x="395" y="298">-</text>
	<text font-family="Helvetica" font-size="8" fill="#000000" xml:space="preserve" x="407" y="298">y1 : double</text>
	<text font-family="Helvetica" font-size="8" fill="#000000" xml:space="preserve" font-weight="bold" x="395" y="315">-</text>
	<text font-family="Helvetica" font-size="8" fill="#000000" xml:space="preserve" x="407" y="315">x2 : double</text>
	<text font-family="Helvetica" font-size="8" fill="#000000" xml:space="preserve" font-weight="bold" x="395" y="332">-</text>
	<text font-family="Helvetica" font-size="8" fill="#000000" xml:space="preserve" x="407" y="332">y2 : double</text>
	<text font-family="Helvetica" font-size="8" fill="#000000" xml:space="preserve" font-weight="bold" x="395" y="349">-</text>
	<text font-family="Helvetica" font-size="8" fill="#000000" xml:space="preserve" x="407" y="349">top : INode</text>
	<text font-family="Helvetica" font-size="8" fill="#000000" xml:space="preserve" font-weight="bold" x="395" y="366">-</text>
	<text font-family="Helvetica" font-size="8" fill="#000000" xml:space="preserve" x="407" y="366">bottom : INode</text>
	<line stroke="black" stroke-opacity="1" x1="391" y1="375" x2="481" y2="375" />
</g>
<g>
	<rect fill="#cbcbcb" stroke="none" stroke-opacity="1" x="637" y="248" width="3" height="61" />
	<rect fill="#cbcbcb" stroke="none" stroke-opacity="1" x="559" y="306" width="81" height="3" />
	<rect fill="#ffffc0" stroke="black" stroke-width="1" stroke-opacity="1" x="555" y="244" width="82" height="62" />
	<text font-family="Helvetica" font-size="8" fill="#000000" xml:space="preserve" font-weight="bold" text-anchor="middle" x="596" y="254">Leaf.</text>
	<line stroke="black" stroke-opacity="1" x1="555" y1="263" x2="637" y2="263" />
	<text font-family="Helvetica" font-size="8" fill="#000000" xml:space="preserve" font-weight="bold" x="559" y="273">-</text>
	<text font-family="Helvetica" font-size="8" fill="#000000" xml:space="preserve" x="571" y="273">id : int</text>
	<text font-family="Helvetica" font-size="8" fill="#000000" xml:space="preserve" font-weight="bold" x="559" y="290">-</text>
	<text font-family="Helvetica" font-size="8" fill="#000000" xml:space="preserve" x="571" y="290">name : string</text>
	<line stroke="black" stroke-opacity="1" x1="555" y1="299" x2="637" y2="299" />
</g>
<g>
	<rect fill="#cbcbcb" stroke="none" stroke-opacity="1" x="362" y="257" width="3" height="95" />
	<rect fill="#cbcbcb" stroke="none" stroke-opacity="1" x="288" y="349" width="77" height="3" />
	<rect fill="#ffffc0" stroke="black" stroke-width="1" stroke-opacity="1" x="284" y="253" width="78" height="96" />
	<text font-family="Helvetica" font-size="8" fill="#000000" xml:space="preserve" font-weight="bold" text-anchor="middle" x="323" y="263">XNode</text>
	<line stroke="black" stroke-opacity="1" x1="284" y1="272" x2="362" y2="272" />
	<text font-family="Helvetica" font-size="8" fill="#000000" xml:space="preserve" font-weight="bold" x="288" y="282">-</text>
	<text font-family="Helvetica" font-size="8" fill="#000000" xml:space="preserve" x="300" y="282">x : double</text>
	<text font-family="Helvetica" font-size="8" fill="#000000" xml:space="preserve" font-weight="bold" x="288" y="299">-</text>
	<text font-family="Helvetica" font-size="8" fill="#000000" xml:space="preserve" x="300" y="299">y : double</text>
	<text font-family="Helvetica" font-size="8" fill="#000000" xml:space="preserve" font-weight="bold" x="288" y="316">-</text>
	<text font-family="Helvetica" font-size="8" fill="#000000" xml:space="preserve" x="300" y="316">left : INode</text>
	<text font-family="Helvetica" font-size="8" fill="#000000" xml:space="preserve" font-weight="bold" x="288" y="333">-</text>
	<text font-family="Helvetica" font-size="8" fill="#000000" xml:space="preserve" x="300" y="333">right : INode</text>
	<line stroke="black" stroke-opacity="1" x1="284" y1="342" x2="362" y2="342" />
</g>
<g>
	<rect fill="#cbcbcb" stroke="none" stroke-opacity="1" x="647" y="133" width="3" height="61" />
	<rect fill="#cbcbcb" stroke="none" stroke-opacity="1" x="547" y="191" width="103" height="3" />
	<rect fill="#ffffc0" stroke="black" stroke-width="1" stroke-opacity="1" x="543" y="129" width="104" height="62" />
	<text font-family="Helvetica" font-size="8" fill="#000000" xml:space="preserve" font-weight="bold" text-anchor="middle" x="595" y="139">ILeaf</text>
	<line stroke="black" stroke-opacity="1" x1="543" y1="148" x2="647" y2="148" />
	<line stroke="black" stroke-opacity="1" x1="543" y1="156" x2="647" y2="156" />
	<text font-family="Helvetica" font-size="8" fill="#000000" xml:space="preserve" font-weight="bold" x="547" y="166">+</text>
	<text font-family="Helvetica" font-size="8" fill="#000000" xml:space="preserve" x="559" y="166">getId() : long</text>
	<text font-family="Helvetica" font-size="8" fill="#000000" xml:space="preserve" font-weight="bold" x="547" y="183">+</text>
	<text font-family="Helvetica" font-size="8" fill="#000000" xml:space="preserve" x="559" y="183">getName() : string</text>
</g>
<g>
	<line stroke-dasharray="4,4" stroke="black" stroke-opacity="1" x1="597" y1="243" x2="597" y2="201" />
	<line stroke="black" stroke-opacity="1" x1="597" y1="195" x2="591" y2="201" />
	<line stroke="black" stroke-opacity="1" x1="597" y1="195" x2="603" y2="201" />
	<line stroke="black" stroke-opacity="1" x1="591" y1="201" x2="603" y2="201" />
</g>
<g>
	<text font-family="Helvetica" font-size="8" fill="#000000" xml:space="preserve" x="446" y="202">1</text>
</g>
<g>
	<text font-family="Helvetica" font-size="8" fill="#000000" xml:space="preserve" x="436" y="241">1..*</text>
</g>
<g>
	<text font-family="Helvetica" font-size="8" fill="#000000" xml:space="preserve" x="290" y="202">1</text>
</g>
<g>
	<text font-family="Helvetica" font-size="8" fill="#000000" xml:space="preserve" x="280" y="242">1..*</text>
</g>
<g>
	<text font-family="Helvetica" font-size="8" fill="#000000" xml:space="preserve" x="366" y="128">1</text>
</g>
<g>
	<text font-family="Helvetica" font-size="8" fill="#000000" xml:space="preserve" x="356" y="91">1..*</text>
</g>
<g>
	<rect fill="#cbcbcb" stroke="none" stroke-opacity="1" x="472" y="143" width="3" height="45" />
	<rect fill="#cbcbcb" stroke="none" stroke-opacity="1" x="290" y="185" width="185" height="3" />
	<rect fill="#ffffc0" stroke="black" stroke-width="1" stroke-opacity="1" x="286" y="139" width="186" height="46" />
	<text font-family="Helvetica" font-size="8" fill="#000000" xml:space="preserve" font-weight="bold" text-anchor="middle" x="379" y="149">INode.</text>
	<line stroke="black" stroke-opacity="1" x1="286" y1="158" x2="472" y2="158" />
	<line stroke="black" stroke-opacity="1" x1="286" y1="166" x2="472" y2="166" />
	<text font-family="Helvetica" font-size="8" fill="#000000" xml:space="preserve" font-weight="bold" x="290" y="176">+</text>
	<text font-family="Helvetica" font-size="8" fill="#000000" xml:space="preserve" x="302" y="176">locate(x : double, y : double) : ILeaf</text>
</g>
<g>
	<line stroke-dasharray="4,4" stroke="black" stroke-opacity="1" x1="414" y1="251" x2="411" y2="194" />
	<line stroke="black" stroke-opacity="1" x1="411" y1="189" x2="405" y2="195" />
	<line stroke="black" stroke-opacity="1" x1="411" y1="189" x2="417" y2="194" />
	<line stroke="black" stroke-opacity="1" x1="405" y1="195" x2="417" y2="194" />
</g>
<g>
	<line stroke="black" stroke-opacity="1" x1="464" y1="251" x2="459" y2="189" />
	<polygon fill="#000000" stroke="black" stroke-opacity="1" points="464,251 457,245 463,239 469,244" />
</g>
<g>
	<line stroke-dasharray="4,4" stroke="black" stroke-opacity="1" x1="344" y1="252" x2="342" y2="194" />
	<line stroke="black" stroke-opacity="1" x1="342" y1="189" x2="336" y2="195" />
	<line stroke="black" stroke-opacity="1" x1="342" y1="189" x2="348" y2="194" />
	<line stroke="black" stroke-opacity="1" x1="336" y1="195" x2="348" y2="194" />
</g>
<g>
	<line stroke="black" stroke-opacity="1" x1="307" y1="252" x2="306" y2="189" />
	<polygon fill="#000000" stroke="black" stroke-opacity="1" points="307,252 300,246 306,240 312,245" />
</g>
<g>
	<line stroke="black" stroke-opacity="1" x1="542" y1="162" x2="482" y2="162" />
	<line stroke="black" stroke-opacity="1" x1="476" y1="162" x2="482" y2="168" />
	<line stroke="black" stroke-opacity="1" x1="476" y1="162" x2="482" y2="156" />
	<line stroke="black" stroke-opacity="1" x1="482" y1="168" x2="482" y2="156" />
</g>
<g>
	<rect fill="#cbcbcb" stroke="none" stroke-opacity="1" x="471" y="22" width="3" height="55" />
	<rect fill="#cbcbcb" stroke="none" stroke-opacity="1" x="289" y="74" width="185" height="3" />
	<rect fill="#ffffc0" stroke="black" stroke-width="1" stroke-opacity="1" x="285" y="18" width="186" height="56" />
	<text font-family="Helvetica" font-size="8" fill="#000000" xml:space="preserve" font-weight="bold" text-anchor="middle" x="378" y="28">Tree</text>
	<line stroke="black" stroke-opacity="1" x1="285" y1="37" x2="471" y2="37" />
	<text font-family="Helvetica" font-size="8" fill="#000000" xml:space="preserve" font-weight="bold" x="289" y="47">-</text>
	<text font-family="Helvetica" font-size="8" fill="#000000" xml:space="preserve" x="301" y="47">root : INode</text>
	<line stroke="black" stroke-opacity="1" x1="285" y1="56" x2="471" y2="56" />
	<text font-family="Helvetica" font-size="8" fill="#000000" xml:space="preserve" font-weight="bold" x="289" y="66">+</text>
	<text font-family="Helvetica" font-size="8" fill="#000000" xml:space="preserve" x="301" y="66">locate(x : double, y : double) : ILeaf</text>
</g>
<g>
	<line stroke="black" stroke-opacity="1" x1="380" y1="78" x2="380" y2="138" />
	<polygon fill="#000000" stroke="black" stroke-opacity="1" points="380,78 386,84 380,90 374,84" />
</g>
</svg>
