<?xml version="1.0" encoding="UTF-8" standalone="no"?>
<!-- Created with Bouml (http://bouml.free.fr/) -->
<!DOCTYPE svg PUBLIC "-//W3C//DTD SVG 1.1//EN" "http://www.w3.org/Graphics/SVG/1.1/DTD/svg11.dtd">
<svg width="820" height="479" version="1.1" xmlns="http://www.w3.org/2000/svg">
<g>
	<rect fill="#cbcbcb" stroke="none" stroke-opacity="1" x="230" y="118" width="3" height="45" />
	<rect fill="#cbcbcb" stroke="none" stroke-opacity="1" x="150" y="160" width="83" height="3" />
	<rect fill="#ffffc0" stroke="black" stroke-width="1" stroke-opacity="1" x="146" y="114" width="84" height="46" />
	<text font-family="Helvetica" font-size="8" fill="#000000" xml:space="preserve" font-weight="bold" text-anchor="middle" x="188" y="124">LocalActivity</text>
	<line stroke="black" stroke-opacity="1" x1="146" y1="133" x2="230" y2="133" />
	<text font-family="Helvetica" font-size="8" fill="#000000" xml:space="preserve" font-weight="bold" x="150" y="143">-</text>
	<text font-family="Helvetica" font-size="8" fill="#000000" xml:space="preserve" x="162" y="143">sig : ISig1337</text>
	<line stroke="black" stroke-opacity="1" x1="146" y1="152" x2="230" y2="152" />
</g>
<g>
	<rect fill="#cbcbcb" stroke="none" stroke-opacity="1" x="352" y="231" width="3" height="73" />
	<rect fill="#cbcbcb" stroke="none" stroke-opacity="1" x="228" y="301" width="127" height="3" />
	<rect fill="#ffffc0" stroke="black" stroke-width="1" stroke-opacity="1" x="224" y="227" width="128" height="74" />
	<text font-family="Helvetica" font-size="8" fill="#000000" xml:space="preserve" font-weight="bold" text-anchor="middle" x="288" y="237">RemoteActivity</text>
	<line stroke="black" stroke-opacity="1" x1="224" y1="246" x2="352" y2="246" />
	<text font-family="Helvetica" font-size="8" fill="#000000" xml:space="preserve" font-weight="bold" x="228" y="256">-</text>
	<text font-family="Helvetica" font-size="8" fill="#000000" xml:space="preserve" x="240" y="256">sig : ISig1337</text>
	<text font-family="Helvetica" font-size="8" fill="#000000" xml:space="preserve" font-weight="bold" x="228" y="273">-</text>
	<text font-family="Helvetica" font-size="8" fill="#000000" xml:space="preserve" x="240" y="273">serverIP : string</text>
	<line stroke="black" stroke-opacity="1" x1="224" y1="282" x2="352" y2="282" />
	<text font-family="Helvetica" font-size="8" fill="#000000" xml:space="preserve" font-weight="bold" x="228" y="292">+</text>
	<text font-family="Helvetica" font-size="8" fill="#000000" xml:space="preserve" x="240" y="292">createMap(xml : string)</text>
</g>
<g>
	<rect fill="#cbcbcb" stroke="none" stroke-opacity="1" x="91" y="26" width="3" height="33" />
	<rect fill="#cbcbcb" stroke="none" stroke-opacity="1" x="21" y="56" width="73" height="3" />
	<rect fill="#ffffc0" stroke="black" stroke-width="1" stroke-opacity="1" x="17" y="22" width="74" height="34" />
	<text font-family="Helvetica" font-size="8" fill="#000000" xml:space="preserve" font-weight="bold" text-anchor="middle" x="54" y="32">IntentService</text>
	<line stroke="black" stroke-opacity="1" x1="17" y1="41" x2="91" y2="41" />
	<line stroke="black" stroke-opacity="1" x1="17" y1="49" x2="91" y2="49" />
</g>
<g>
	<rect fill="#cbcbcb" stroke="none" stroke-opacity="1" x="98" y="111" width="3" height="33" />
	<rect fill="#cbcbcb" stroke="none" stroke-opacity="1" x="16" y="141" width="85" height="3" />
	<rect fill="#ffffc0" stroke="black" stroke-width="1" stroke-opacity="1" x="12" y="107" width="86" height="34" />
	<text font-family="Helvetica" font-size="8" fill="#000000" xml:space="preserve" font-weight="bold" text-anchor="middle" x="55" y="117">Sig1337Service</text>
	<line stroke="black" stroke-opacity="1" x1="12" y1="126" x2="98" y2="126" />
	<line stroke="black" stroke-opacity="1" x1="12" y1="134" x2="98" y2="134" />
</g>
<g>
	<rect fill="#cbcbcb" stroke="none" stroke-opacity="1" x="153" y="202" width="3" height="61" />
	<rect fill="#cbcbcb" stroke="none" stroke-opacity="1" x="21" y="260" width="135" height="3" />
	<rect fill="#ffffc0" stroke="black" stroke-width="1" stroke-opacity="1" x="17" y="198" width="136" height="62" />
	<text font-family="Helvetica" font-size="8" fill="#000000" xml:space="preserve" font-weight="bold" text-anchor="middle" x="85" y="208">MainActivity</text>
	<line stroke="black" stroke-opacity="1" x1="17" y1="217" x2="153" y2="217" />
	<line stroke="black" stroke-opacity="1" x1="17" y1="225" x2="153" y2="225" />
	<text font-family="Helvetica" font-size="8" fill="#000000" xml:space="preserve" font-weight="bold" x="21" y="235">+</text>
	<text font-family="Helvetica" font-size="8" fill="#000000" xml:space="preserve" x="33" y="235">onClickLocal(v : View)</text>
	<text font-family="Helvetica" font-size="8" fill="#000000" xml:space="preserve" font-weight="bold" x="21" y="252">+</text>
	<text font-family="Helvetica" font-size="8" fill="#000000" xml:space="preserve" x="33" y="252">onClickRemote(v : View)</text>
</g>
<g>
	<rect fill="#cbcbcb" stroke="none" stroke-opacity="1" x="652" y="26" width="3" height="107" />
	<rect fill="#cbcbcb" stroke="none" stroke-opacity="1" x="546" y="130" width="109" height="3" />
	<rect fill="#ffffc0" stroke="black" stroke-width="1" stroke-opacity="1" x="542" y="22" width="110" height="108" />
	<text font-family="Helvetica" font-size="8" fill="#000000" xml:space="preserve" font-weight="bold" text-anchor="middle" x="597" y="32">MySensorListener</text>
	<line stroke="black" stroke-opacity="1" x1="542" y1="41" x2="652" y2="41" />
	<text font-family="Helvetica" font-size="8" fill="#000000" xml:space="preserve" font-weight="bold" x="546" y="51">-</text>
	<text font-family="Helvetica" font-size="8" fill="#000000" xml:space="preserve" x="558" y="51">rotation : float</text>
	<text font-family="Helvetica" font-size="8" fill="#000000" xml:space="preserve" font-weight="bold" x="546" y="68">-</text>
	<text font-family="Helvetica" font-size="8" fill="#000000" xml:space="preserve" x="558" y="68">gravity : float[]</text>
	<text font-family="Helvetica" font-size="8" fill="#000000" xml:space="preserve" font-weight="bold" x="546" y="85">-</text>
	<text font-family="Helvetica" font-size="8" fill="#000000" xml:space="preserve" x="558" y="85">geomag : float[]</text>
	<text font-family="Helvetica" font-size="8" fill="#000000" xml:space="preserve" font-weight="bold" x="546" y="102">-</text>
	<text font-family="Helvetica" font-size="8" fill="#000000" xml:space="preserve" x="558" y="102">values : float[]</text>
	<line stroke="black" stroke-opacity="1" x1="542" y1="111" x2="652" y2="111" />
	<text font-family="Helvetica" font-size="8" fill="#000000" xml:space="preserve" font-weight="bold" x="546" y="121">+</text>
	<text font-family="Helvetica" font-size="8" fill="#000000" xml:space="preserve" x="558" y="121">getRotation() : float</text>
</g>
<g>
	<rect fill="#cbcbcb" stroke="none" stroke-opacity="1" x="804" y="215" width="3" height="33" />
	<rect fill="#cbcbcb" stroke="none" stroke-opacity="1" x="714" y="245" width="93" height="3" />
	<rect fill="#ffffc0" stroke="black" stroke-width="1" stroke-opacity="1" x="710" y="211" width="94" height="34" />
	<text font-family="Helvetica" font-size="8" fill="#000000" xml:space="preserve" font-weight="bold" text-anchor="middle" x="757" y="221">LocationListener</text>
	<line stroke="black" stroke-opacity="1" x1="710" y1="230" x2="804" y2="230" />
	<line stroke="black" stroke-opacity="1" x1="710" y1="238" x2="804" y2="238" />
</g>
<g>
	<rect fill="#cbcbcb" stroke="none" stroke-opacity="1" x="620" y="393" width="3" height="73" />
	<rect fill="#cbcbcb" stroke="none" stroke-opacity="1" x="486" y="463" width="137" height="3" />
	<rect fill="#ffffc0" stroke="black" stroke-width="1" stroke-opacity="1" x="482" y="389" width="138" height="74" />
	<text font-family="Helvetica" font-size="8" fill="#000000" xml:space="preserve" font-weight="bold" text-anchor="middle" x="551" y="399">ItineraireActivity</text>
	<line stroke="black" stroke-opacity="1" x1="482" y1="408" x2="620" y2="408" />
	<text font-family="Helvetica" font-size="8" fill="#000000" xml:space="preserve" font-weight="bold" x="486" y="418">-</text>
	<text font-family="Helvetica" font-size="8" fill="#000000" xml:space="preserve" x="498" y="418">spinner_source : Spinner</text>
	<text font-family="Helvetica" font-size="8" fill="#000000" xml:space="preserve" font-weight="bold" x="486" y="435">-</text>
	<text font-family="Helvetica" font-size="8" fill="#000000" xml:space="preserve" x="498" y="435">spinner_target : Spinner</text>
	<line stroke="black" stroke-opacity="1" x1="482" y1="444" x2="620" y2="444" />
	<text font-family="Helvetica" font-size="8" fill="#000000" xml:space="preserve" font-weight="bold" x="486" y="454">+</text>
	<text font-family="Helvetica" font-size="8" fill="#000000" xml:space="preserve" x="498" y="454">valide(v : View)</text>
</g>
<g>
	<rect fill="#cbcbcb" stroke="none" stroke-opacity="1" x="754" y="316" width="3" height="33" />
	<rect fill="#cbcbcb" stroke="none" stroke-opacity="1" x="698" y="346" width="59" height="3" />
	<rect fill="#ffffc0" stroke="black" stroke-width="1" stroke-opacity="1" x="694" y="312" width="60" height="34" />
	<text font-family="Helvetica" font-size="8" fill="#000000" xml:space="preserve" font-weight="bold" text-anchor="middle" x="724" y="322">Parcelable</text>
	<line stroke="black" stroke-opacity="1" x1="694" y1="331" x2="754" y2="331" />
	<line stroke="black" stroke-opacity="1" x1="694" y1="339" x2="754" y2="339" />
</g>
<g>
	<rect fill="#cbcbcb" stroke="none" stroke-opacity="1" x="767" y="398" width="3" height="61" />
	<rect fill="#cbcbcb" stroke="none" stroke-opacity="1" x="689" y="456" width="81" height="3" />
	<rect fill="#ffffc0" stroke="black" stroke-width="1" stroke-opacity="1" x="685" y="394" width="82" height="62" />
	<text font-family="Helvetica" font-size="8" fill="#000000" xml:space="preserve" font-weight="bold" text-anchor="middle" x="726" y="404">ItineraireItem</text>
	<line stroke="black" stroke-opacity="1" x1="685" y1="413" x2="767" y2="413" />
	<text font-family="Helvetica" font-size="8" fill="#000000" xml:space="preserve" font-weight="bold" x="689" y="423">-</text>
	<text font-family="Helvetica" font-size="8" fill="#000000" xml:space="preserve" x="701" y="423">id : long</text>
	<text font-family="Helvetica" font-size="8" fill="#000000" xml:space="preserve" font-weight="bold" x="689" y="440">-</text>
	<text font-family="Helvetica" font-size="8" fill="#000000" xml:space="preserve" x="701" y="440">name : string</text>
	<line stroke="black" stroke-opacity="1" x1="685" y1="449" x2="767" y2="449" />
</g>
<g>
	<rect fill="#cbcbcb" stroke="none" stroke-opacity="1" x="800" y="62" width="3" height="33" />
	<rect fill="#cbcbcb" stroke="none" stroke-opacity="1" x="690" y="92" width="113" height="3" />
	<rect fill="#ffffc0" stroke="black" stroke-width="1" stroke-opacity="1" x="686" y="58" width="114" height="34" />
	<text font-family="Helvetica" font-size="8" fill="#000000" xml:space="preserve" font-weight="bold" text-anchor="middle" x="743" y="68">SensorEventListener</text>
	<line stroke="black" stroke-opacity="1" x1="686" y1="77" x2="800" y2="77" />
	<line stroke="black" stroke-opacity="1" x1="686" y1="85" x2="800" y2="85" />
</g>
<g>
	<rect fill="#cbcbcb" stroke="none" stroke-opacity="1" x="396" y="411" width="3" height="33" />
	<rect fill="#cbcbcb" stroke="none" stroke-opacity="1" x="354" y="441" width="45" height="3" />
	<rect fill="#ffffc0" stroke="black" stroke-width="1" stroke-opacity="1" x="350" y="407" width="46" height="34" />
	<text font-family="Helvetica" font-size="8" fill="#000000" xml:space="preserve" font-weight="bold" text-anchor="middle" x="373" y="417">Activity</text>
	<line stroke="black" stroke-opacity="1" x1="350" y1="426" x2="396" y2="426" />
	<line stroke="black" stroke-opacity="1" x1="350" y1="434" x2="396" y2="434" />
</g>
<g>
	<rect fill="#cbcbcb" stroke="none" stroke-opacity="1" x="479" y="9" width="3" height="45" />
	<rect fill="#cbcbcb" stroke="none" stroke-opacity="1" x="263" y="51" width="219" height="3" />
	<rect fill="#ffffc0" stroke="black" stroke-width="1" stroke-opacity="1" x="259" y="5" width="220" height="46" />
	<text font-family="Helvetica" font-size="8" fill="#000000" xml:space="preserve" font-weight="bold" text-anchor="middle" x="369" y="15">SigRendererListener</text>
	<line stroke="black" stroke-opacity="1" x1="259" y1="24" x2="479" y2="24" />
	<line stroke="black" stroke-opacity="1" x1="259" y1="32" x2="479" y2="32" />
	<text font-family="Helvetica" font-size="8" fill="#000000" xml:space="preserve" font-weight="bold" x="263" y="42">+</text>
	<text font-family="Helvetica" font-size="8" fill="#000000" xml:space="preserve" x="275" y="42">onStructureSelected(structure : IStructure)</text>
</g>
<g>
	<line stroke-dasharray="4,4" stroke="black" stroke-opacity="1" x1="656" y1="77" x2="679" y2="77" />
	<line stroke="black" stroke-opacity="1" x1="685" y1="77" x2="679" y2="71" />
	<line stroke="black" stroke-opacity="1" x1="685" y1="77" x2="679" y2="83" />
	<line stroke="black" stroke-opacity="1" x1="679" y1="71" x2="679" y2="83" />
</g>
<g>
	<line stroke="black" stroke-opacity="1" x1="137" y1="264" x2="344" y2="403" />
	<line stroke="black" stroke-opacity="1" x1="349" y1="407" x2="347" y2="398" />
	<line stroke="black" stroke-opacity="1" x1="349" y1="407" x2="340" y2="408" />
	<line stroke="black" stroke-opacity="1" x1="347" y1="398" x2="340" y2="408" />
</g>
<g>
	<line stroke="black" stroke-opacity="1" x1="56" y1="106" x2="56" y2="66" />
	<line stroke="black" stroke-opacity="1" x1="56" y1="60" x2="50" y2="66" />
	<line stroke="black" stroke-opacity="1" x1="56" y1="60" x2="62" y2="66" />
	<line stroke="black" stroke-opacity="1" x1="50" y1="66" x2="62" y2="66" />
</g>
<g>
	<line stroke="black" stroke-opacity="1" x1="159" y1="164" x2="150" y2="163" />
	<line stroke="black" stroke-opacity="1" x1="159" y1="164" x2="158" y2="172" />
	<line stroke-dasharray="4,4" stroke="black" stroke-opacity="1" x1="122" y1="197" x2="159" y2="164" />
</g>
<g>
	<line stroke="black" stroke-opacity="1" x1="223" y1="254" x2="218" y2="247" />
	<line stroke="black" stroke-opacity="1" x1="223" y1="254" x2="216" y2="258" />
	<line stroke-dasharray="4,4" stroke="black" stroke-opacity="1" x1="157" y1="242" x2="223" y2="254" />
</g>
<g>
	<line stroke="black" stroke-opacity="1" x1="102" y1="129" x2="107" y2="135" />
	<line stroke="black" stroke-opacity="1" x1="102" y1="129" x2="108" y2="123" />
	<line stroke-dasharray="4,4" stroke="black" stroke-opacity="1" x1="145" y1="133" x2="102" y2="129" />
</g>
<g>
	<line stroke="black" stroke-opacity="1" x1="481" y1="427" x2="405" y2="426" />
	<line stroke="black" stroke-opacity="1" x1="400" y1="426" x2="405" y2="432" />
	<line stroke="black" stroke-opacity="1" x1="400" y1="426" x2="406" y2="420" />
	<line stroke="black" stroke-opacity="1" x1="405" y1="432" x2="406" y2="420" />
</g>
<g>
	<line stroke-dasharray="4,4" stroke="black" stroke-opacity="1" x1="727" y1="393" x2="726" y2="355" />
	<line stroke="black" stroke-opacity="1" x1="726" y1="350" x2="720" y2="356" />
	<line stroke="black" stroke-opacity="1" x1="726" y1="350" x2="732" y2="355" />
	<line stroke="black" stroke-opacity="1" x1="720" y1="356" x2="732" y2="355" />
</g>
<g>
	<line stroke="black" stroke-opacity="1" x1="624" y1="427" x2="684" y2="427" />
	<polygon fill="#000000" stroke="black" stroke-opacity="1" points="624,427 630,421 636,427 630,433" />
</g>
<g>
	<rect fill="#cbcbcb" stroke="none" stroke-opacity="1" x="665" y="174" width="3" height="123" />
	<rect fill="#cbcbcb" stroke="none" stroke-opacity="1" x="541" y="294" width="127" height="3" />
	<rect fill="#ffffc0" stroke="black" stroke-width="1" stroke-opacity="1" x="537" y="170" width="128" height="124" />
	<text font-family="Helvetica" font-size="8" fill="#000000" xml:space="preserve" font-weight="bold" text-anchor="middle" x="601" y="180">MyLocationListener</text>
	<line stroke="black" stroke-opacity="1" x1="537" y1="189" x2="665" y2="189" />
	<text font-family="Helvetica" font-size="8" fill="#000000" xml:space="preserve" font-weight="bold" x="541" y="199">-</text>
	<text font-family="Helvetica" font-size="8" fill="#000000" xml:space="preserve" x="553" y="199">latitude : double</text>
	<text font-family="Helvetica" font-size="8" fill="#000000" xml:space="preserve" font-weight="bold" x="541" y="216">-</text>
	<text font-family="Helvetica" font-size="8" fill="#000000" xml:space="preserve" x="553" y="216">longitude : double</text>
	<text font-family="Helvetica" font-size="8" fill="#000000" xml:space="preserve" font-weight="bold" x="541" y="233">-</text>
	<text font-family="Helvetica" font-size="8" fill="#000000" xml:space="preserve" x="553" y="233">bearing : float</text>
	<line stroke="black" stroke-opacity="1" x1="537" y1="242" x2="665" y2="242" />
	<text font-family="Helvetica" font-size="8" fill="#000000" xml:space="preserve" font-weight="bold" x="541" y="252">+</text>
	<text font-family="Helvetica" font-size="8" fill="#000000" xml:space="preserve" x="553" y="252">getLatitude() : double</text>
	<text font-family="Helvetica" font-size="8" fill="#000000" xml:space="preserve" font-weight="bold" x="541" y="269">+</text>
	<text font-family="Helvetica" font-size="8" fill="#000000" xml:space="preserve" x="553" y="269">getLongitude() : double</text>
	<text font-family="Helvetica" font-size="8" fill="#000000" xml:space="preserve" font-weight="bold" x="541" y="286">+</text>
	<text font-family="Helvetica" font-size="8" fill="#000000" xml:space="preserve" x="553" y="286">getBearing() : float</text>
</g>
<g>
	<line stroke-dasharray="4,4" stroke="black" stroke-opacity="1" x1="669" y1="232" x2="703" y2="231" />
	<line stroke="black" stroke-opacity="1" x1="709" y1="231" x2="702" y2="225" />
	<line stroke="black" stroke-opacity="1" x1="709" y1="231" x2="703" y2="237" />
	<line stroke="black" stroke-opacity="1" x1="702" y1="225" x2="703" y2="237" />
</g>
<g>
	<rect fill="#cbcbcb" stroke="none" stroke-opacity="1" x="468" y="92" width="3" height="113" />
	<rect fill="#cbcbcb" stroke="none" stroke-opacity="1" x="282" y="202" width="189" height="3" />
	<rect fill="#ffffc0" stroke="black" stroke-width="1" stroke-opacity="1" x="278" y="88" width="190" height="114" />
	<text font-family="Helvetica" font-size="8" fill="#000000" xml:space="preserve" font-weight="bold" text-anchor="middle" x="373" y="98">ActivityBase</text>
	<line stroke="black" stroke-opacity="1" x1="278" y1="107" x2="468" y2="107" />
	<text font-family="Helvetica" font-size="8" fill="#000000" xml:space="preserve" font-weight="bold" x="282" y="117">-</text>
	<text font-family="Helvetica" font-size="8" fill="#000000" xml:space="preserve" x="294" y="117">view : SigView</text>
	<text font-family="Helvetica" font-size="8" fill="#000000" xml:space="preserve" font-weight="bold" x="282" y="134">-</text>
	<text font-family="Helvetica" font-size="8" fill="#000000" xml:space="preserve" x="294" y="134">locationManager : LocationManager</text>
	<text font-family="Helvetica" font-size="8" fill="#000000" xml:space="preserve" font-weight="bold" x="282" y="151">-</text>
	<text font-family="Helvetica" font-size="8" fill="#000000" xml:space="preserve" x="294" y="151">locationListener : LocationListener</text>
	<text font-family="Helvetica" font-size="8" fill="#000000" xml:space="preserve" font-weight="bold" x="282" y="168">-</text>
	<text font-family="Helvetica" font-size="8" fill="#000000" xml:space="preserve" x="294" y="168">sensorManager : SensorManager</text>
	<text font-family="Helvetica" font-size="8" fill="#000000" xml:space="preserve" font-weight="bold" x="282" y="185">-</text>
	<text font-family="Helvetica" font-size="8" fill="#000000" xml:space="preserve" x="294" y="185">sensorListener : MySensorListener</text>
	<line stroke="black" stroke-opacity="1" x1="278" y1="194" x2="468" y2="194" />
</g>
<g>
	<line stroke-dasharray="4,4" stroke="black" stroke-opacity="1" x1="372" y1="87" x2="371" y2="60" />
	<line stroke="black" stroke-opacity="1" x1="371" y1="55" x2="365" y2="61" />
	<line stroke="black" stroke-opacity="1" x1="371" y1="55" x2="377" y2="60" />
	<line stroke="black" stroke-opacity="1" x1="365" y1="61" x2="377" y2="60" />
</g>
<g>
	<line stroke="black" stroke-opacity="1" x1="472" y1="116" x2="541" y2="94" />
	<polygon fill="#000000" stroke="black" stroke-opacity="1" points="472,116 475,108 483,112 479,119" />
</g>
<g>
	<line stroke="black" stroke-opacity="1" x1="472" y1="183" x2="536" y2="207" />
	<polygon fill="#000000" stroke="black" stroke-opacity="1" points="472,183 479,179 483,187 475,190" />
</g>
<g>
	<line stroke="black" stroke-opacity="1" x1="234" y1="140" x2="271" y2="140" />
	<line stroke="black" stroke-opacity="1" x1="277" y1="141" x2="271" y2="134" />
	<line stroke="black" stroke-opacity="1" x1="277" y1="141" x2="270" y2="146" />
	<line stroke="black" stroke-opacity="1" x1="271" y1="134" x2="270" y2="146" />
</g>
<g>
	<line stroke="black" stroke-opacity="1" x1="316" y1="226" x2="325" y2="211" />
	<line stroke="black" stroke-opacity="1" x1="329" y1="206" x2="320" y2="207" />
	<line stroke="black" stroke-opacity="1" x1="329" y1="206" x2="330" y2="214" />
	<line stroke="black" stroke-opacity="1" x1="320" y1="207" x2="330" y2="214" />
</g>
<g>
	<line stroke="black" stroke-opacity="1" x1="375" y1="206" x2="375" y2="400" />
	<line stroke="black" stroke-opacity="1" x1="375" y1="406" x2="381" y2="400" />
	<line stroke="black" stroke-opacity="1" x1="375" y1="406" x2="369" y2="400" />
	<line stroke="black" stroke-opacity="1" x1="381" y1="400" x2="369" y2="400" />
</g>
<g>
	<line stroke="black" stroke-opacity="1" x1="527" y1="388" x2="528" y2="379" />
	<line stroke="black" stroke-opacity="1" x1="527" y1="388" x2="518" y2="386" />
	<line stroke-dasharray="4,4" stroke="black" stroke-opacity="1" x1="412" y1="206" x2="527" y2="388" />
</g>
<g>
	<text font-family="Helvetica" font-size="8" fill="#000000" xml:space="preserve" x="525" y="103">1</text>
</g>
<g>
	<text font-family="Helvetica" font-size="8" fill="#000000" xml:space="preserve" x="482" y="125">1</text>
</g>
<g>
	<text font-family="Helvetica" font-size="8" fill="#000000" xml:space="preserve" x="520" y="222">1</text>
</g>
<g>
	<text font-family="Helvetica" font-size="8" fill="#000000" xml:space="preserve" x="482" y="198">1</text>
</g>
<g>
	<text font-family="Helvetica" font-size="8" fill="#000000" xml:space="preserve" x="668" y="441">1</text>
</g>
<g>
	<text font-family="Helvetica" font-size="8" fill="#000000" xml:space="preserve" x="638" y="441">*</text>
</g>
</svg>
