<?xml version="1.0" encoding="UTF-8" standalone="no"?>
<!-- Created with Bouml (http://bouml.free.fr/) -->
<!DOCTYPE svg PUBLIC "-//W3C//DTD SVG 1.1//EN" "http://www.w3.org/Graphics/SVG/1.1/DTD/svg11.dtd">
<svg width="557" height="460" version="1.1" xmlns="http://www.w3.org/2000/svg">
<g>
	<rect fill="#cbcbcb" stroke="none" stroke-opacity="1" x="283" y="304" width="3" height="129" />
	<rect fill="#cbcbcb" stroke="none" stroke-opacity="1" x="173" y="430" width="113" height="3" />
	<rect fill="#ffffc0" stroke="black" stroke-width="1" stroke-opacity="1" x="169" y="300" width="114" height="130" />
	<text font-family="Helvetica" font-size="8" fill="#000000" xml:space="preserve" font-weight="bold" text-anchor="middle" x="226" y="310">Node,</text>
	<line stroke="black" stroke-opacity="1" x1="169" y1="319" x2="283" y2="319" />
	<text font-family="Helvetica" font-size="8" fill="#000000" xml:space="preserve" font-weight="bold" x="173" y="329">-</text>
	<text font-family="Helvetica" font-size="8" fill="#000000" xml:space="preserve" x="185" y="329">topLeft : INode</text>
	<text font-family="Helvetica" font-size="8" fill="#000000" xml:space="preserve" font-weight="bold" x="173" y="346">-</text>
	<text font-family="Helvetica" font-size="8" fill="#000000" xml:space="preserve" x="185" y="346">topRight : INode</text>
	<text font-family="Helvetica" font-size="8" fill="#000000" xml:space="preserve" font-weight="bold" x="173" y="363">-</text>
	<text font-family="Helvetica" font-size="8" fill="#000000" xml:space="preserve" x="185" y="363">bottomLeft : INode</text>
	<text font-family="Helvetica" font-size="8" fill="#000000" xml:space="preserve" font-weight="bold" x="173" y="380">-</text>
	<text font-family="Helvetica" font-size="8" fill="#000000" xml:space="preserve" x="185" y="380">bottomRight : INode</text>
	<text font-family="Helvetica" font-size="8" fill="#000000" xml:space="preserve" font-weight="bold" x="173" y="397">-</text>
	<text font-family="Helvetica" font-size="8" fill="#000000" xml:space="preserve" x="185" y="397">cX : double</text>
	<text font-family="Helvetica" font-size="8" fill="#000000" xml:space="preserve" font-weight="bold" x="173" y="414">-</text>
	<text font-family="Helvetica" font-size="8" fill="#000000" xml:space="preserve" x="185" y="414">cY : double</text>
	<line stroke="black" stroke-opacity="1" x1="169" y1="423" x2="283" y2="423" />
</g>
<g>
	<rect fill="#cbcbcb" stroke="none" stroke-opacity="1" x="541" y="184" width="3" height="45" />
	<rect fill="#cbcbcb" stroke="none" stroke-opacity="1" x="363" y="226" width="181" height="3" />
	<rect fill="#ffffc0" stroke="black" stroke-width="1" stroke-opacity="1" x="359" y="180" width="182" height="46" />
	<text font-family="Helvetica" font-size="8" fill="#000000" xml:space="preserve" font-weight="bold" text-anchor="middle" x="450" y="190">Leaf,</text>
	<line stroke="black" stroke-opacity="1" x1="359" y1="199" x2="541" y2="199" />
	<text font-family="Helvetica" font-size="8" fill="#000000" xml:space="preserve" font-weight="bold" x="363" y="209">-</text>
	<text font-family="Helvetica" font-size="8" fill="#000000" xml:space="preserve" x="375" y="209">boundingBox : List&lt;BoundingBox&gt;</text>
	<line stroke="black" stroke-opacity="1" x1="359" y1="218" x2="541" y2="218" />
</g>
<g>
	<rect fill="#cbcbcb" stroke="none" stroke-opacity="1" x="502" y="290" width="3" height="157" />
	<rect fill="#cbcbcb" stroke="none" stroke-opacity="1" x="402" y="444" width="103" height="3" />
	<rect fill="#ffffc0" stroke="black" stroke-width="1" stroke-opacity="1" x="398" y="286" width="104" height="158" />
	<text font-family="Helvetica" font-size="8" fill="#000000" xml:space="preserve" font-weight="bold" text-anchor="middle" x="450" y="296">BoundingBox.</text>
	<line stroke="black" stroke-opacity="1" x1="398" y1="305" x2="502" y2="305" />
	<text font-family="Helvetica" font-size="8" fill="#000000" xml:space="preserve" font-weight="bold" x="402" y="315">-</text>
	<text font-family="Helvetica" font-size="8" fill="#000000" xml:space="preserve" x="414" y="315">id : long</text>
	<text font-family="Helvetica" font-size="8" fill="#000000" xml:space="preserve" font-weight="bold" x="402" y="332">-</text>
	<text font-family="Helvetica" font-size="8" fill="#000000" xml:space="preserve" x="414" y="332">name : string</text>
	<text font-family="Helvetica" font-size="8" fill="#000000" xml:space="preserve" font-weight="bold" x="402" y="349">-</text>
	<text font-family="Helvetica" font-size="8" fill="#000000" xml:space="preserve" x="414" y="349">x1 : double</text>
	<text font-family="Helvetica" font-size="8" fill="#000000" xml:space="preserve" font-weight="bold" x="402" y="366">-</text>
	<text font-family="Helvetica" font-size="8" fill="#000000" xml:space="preserve" x="414" y="366">y1 : double</text>
	<text font-family="Helvetica" font-size="8" fill="#000000" xml:space="preserve" font-weight="bold" x="402" y="383">-</text>
	<text font-family="Helvetica" font-size="8" fill="#000000" xml:space="preserve" x="414" y="383">x2 : double</text>
	<text font-family="Helvetica" font-size="8" fill="#000000" xml:space="preserve" font-weight="bold" x="402" y="400">-</text>
	<text font-family="Helvetica" font-size="8" fill="#000000" xml:space="preserve" x="414" y="400">y2 : double</text>
	<line stroke="black" stroke-opacity="1" x1="398" y1="409" x2="502" y2="409" />
	<text font-family="Helvetica" font-size="8" fill="#000000" xml:space="preserve" font-weight="bold" x="402" y="419">+</text>
	<text font-family="Helvetica" font-size="8" fill="#000000" xml:space="preserve" x="414" y="419">getId() : long</text>
	<text font-family="Helvetica" font-size="8" fill="#000000" xml:space="preserve" font-weight="bold" x="402" y="436">+</text>
	<text font-family="Helvetica" font-size="8" fill="#000000" xml:space="preserve" x="414" y="436">getName() : string</text>
</g>
<g>
	<rect fill="#cbcbcb" stroke="none" stroke-opacity="1" x="290" y="183" width="3" height="45" />
	<rect fill="#cbcbcb" stroke="none" stroke-opacity="1" x="68" y="225" width="225" height="3" />
	<rect fill="#ffffc0" stroke="black" stroke-width="1" stroke-opacity="1" x="64" y="179" width="226" height="46" />
	<text font-family="Helvetica" font-size="8" fill="#000000" xml:space="preserve" font-weight="bold" text-anchor="middle" x="177" y="189">INode,</text>
	<line stroke="black" stroke-opacity="1" x1="64" y1="198" x2="290" y2="198" />
	<line stroke="black" stroke-opacity="1" x1="64" y1="206" x2="290" y2="206" />
	<text font-family="Helvetica" font-size="8" fill="#000000" xml:space="preserve" font-weight="bold" x="68" y="216">+</text>
	<text font-family="Helvetica" font-size="8" fill="#000000" xml:space="preserve" x="80" y="216">locate(x : double, y : double) : BoundingBox</text>
</g>
<g>
	<rect fill="#cbcbcb" stroke="none" stroke-opacity="1" x="290" y="39" width="3" height="55" />
	<rect fill="#cbcbcb" stroke="none" stroke-opacity="1" x="68" y="91" width="225" height="3" />
	<rect fill="#ffffc0" stroke="black" stroke-width="1" stroke-opacity="1" x="64" y="35" width="226" height="56" />
	<text font-family="Helvetica" font-size="8" fill="#000000" xml:space="preserve" font-weight="bold" text-anchor="middle" x="177" y="45">ArbreDecision.</text>
	<line stroke="black" stroke-opacity="1" x1="64" y1="54" x2="290" y2="54" />
	<text font-family="Helvetica" font-size="8" fill="#000000" xml:space="preserve" font-weight="bold" x="68" y="64">-</text>
	<text font-family="Helvetica" font-size="8" fill="#000000" xml:space="preserve" x="80" y="64">root : INode</text>
	<line stroke="black" stroke-opacity="1" x1="64" y1="73" x2="290" y2="73" />
	<text font-family="Helvetica" font-size="8" fill="#000000" xml:space="preserve" font-weight="bold" x="68" y="83">+</text>
	<text font-family="Helvetica" font-size="8" fill="#000000" xml:space="preserve" x="80" y="83">locate(x : double, y : double) : BoundingBox</text>
</g>
<g>
	<rect fill="#cbcbcb" stroke="none" stroke-opacity="1" x="115" y="308" width="3" height="33" />
	<rect fill="#cbcbcb" stroke="none" stroke-opacity="1" x="65" y="338" width="53" height="3" />
	<rect fill="#ffffc0" stroke="black" stroke-width="1" stroke-opacity="1" x="61" y="304" width="54" height="34" />
	<text font-family="Helvetica" font-size="8" fill="#000000" xml:space="preserve" font-weight="bold" text-anchor="middle" x="88" y="314">NullNode</text>
	<line stroke="black" stroke-opacity="1" x1="61" y1="323" x2="115" y2="323" />
	<line stroke="black" stroke-opacity="1" x1="61" y1="331" x2="115" y2="331" />
</g>
<g>
	<line stroke="black" stroke-opacity="1" x1="179" y1="95" x2="179" y2="178" />
	<polygon fill="#000000" stroke="black" stroke-opacity="1" points="179,95 185,101 179,107 173,101" />
</g>
<g>
	<line stroke-dasharray="4,4" stroke="black" stroke-opacity="1" x1="358" y1="204" x2="300" y2="204" />
	<line stroke="black" stroke-opacity="1" x1="294" y1="204" x2="300" y2="210" />
	<line stroke="black" stroke-opacity="1" x1="294" y1="204" x2="300" y2="198" />
	<line stroke="black" stroke-opacity="1" x1="300" y1="210" x2="300" y2="198" />
</g>
<g>
	<line stroke="black" stroke-opacity="1" x1="452" y1="230" x2="452" y2="285" />
	<polygon fill="#000000" stroke="black" stroke-opacity="1" points="452,230 458,236 452,242 446,236" />
</g>
<g>
	<line stroke-dasharray="4,4" stroke="black" stroke-opacity="1" x1="103" y1="303" x2="103" y2="235" />
	<line stroke="black" stroke-opacity="1" x1="103" y1="229" x2="97" y2="235" />
	<line stroke="black" stroke-opacity="1" x1="103" y1="229" x2="109" y2="235" />
	<line stroke="black" stroke-opacity="1" x1="97" y1="235" x2="109" y2="235" />
</g>
<g>
	<line stroke-dasharray="4,4" stroke="black" stroke-opacity="1" x1="206" y1="299" x2="205" y2="234" />
	<line stroke="black" stroke-opacity="1" x1="205" y1="229" x2="199" y2="235" />
	<line stroke="black" stroke-opacity="1" x1="205" y1="229" x2="211" y2="234" />
	<line stroke="black" stroke-opacity="1" x1="199" y1="235" x2="211" y2="234" />
</g>
<g>
	<text font-family="Helvetica" font-size="8" fill="#000000" xml:space="preserve" x="437" y="275">1</text>
</g>
<g>
	<text font-family="Helvetica" font-size="8" fill="#000000" xml:space="preserve" x="427" y="243">1..*</text>
</g>
<g>
	<text font-family="Helvetica" font-size="8" fill="#000000" xml:space="preserve" x="165" y="168">1</text>
</g>
<g>
	<text font-family="Helvetica" font-size="8" fill="#000000" xml:space="preserve" x="155" y="108">1..*</text>
</g>
</svg>
