<?xml version="1.0" encoding="UTF-8" standalone="no"?>
<!-- Created with Bouml (http://bouml.free.fr/) -->
<!DOCTYPE svg PUBLIC "-//W3C//DTD SVG 1.1//EN" "http://www.w3.org/Graphics/SVG/1.1/DTD/svg11.dtd">
<svg width="676" height="605" version="1.1" xmlns="http://www.w3.org/2000/svg">
<g>
	<rect fill="#cbcbcb" stroke="none" stroke-opacity="1" x="571" y="351" width="3" height="45" />
	<rect fill="#cbcbcb" stroke="none" stroke-opacity="1" x="481" y="393" width="93" height="3" />
	<rect fill="#ffffc0" stroke="black" stroke-width="1" stroke-opacity="1" x="477" y="347" width="94" height="46" />
	<text font-family="Helvetica" font-size="8" fill="#000000" xml:space="preserve" font-weight="bold" text-anchor="middle" x="524" y="357">RemoteSig1337</text>
	<line stroke="black" stroke-opacity="1" x1="477" y1="366" x2="571" y2="366" />
	<text font-family="Helvetica" font-size="8" fill="#000000" xml:space="preserve" font-weight="bold" x="481" y="376">-</text>
	<text font-family="Helvetica" font-size="8" fill="#000000" xml:space="preserve" x="493" y="376">serverIP : string</text>
	<line stroke="black" stroke-opacity="1" x1="477" y1="385" x2="571" y2="385" />
</g>
<g>
	<rect fill="#cbcbcb" stroke="none" stroke-opacity="1" x="451" y="559" width="3" height="33" />
	<rect fill="#cbcbcb" stroke="none" stroke-opacity="1" x="391" y="589" width="63" height="3" />
	<rect fill="#ffffc0" stroke="black" stroke-width="1" stroke-opacity="1" x="387" y="555" width="64" height="34" />
	<text font-family="Helvetica" font-size="8" fill="#000000" xml:space="preserve" font-weight="bold" text-anchor="middle" x="419" y="565">AsyncTask</text>
	<line stroke="black" stroke-opacity="1" x1="387" y1="574" x2="451" y2="574" />
	<line stroke="black" stroke-opacity="1" x1="387" y1="582" x2="451" y2="582" />
</g>
<g>
	<rect fill="#cbcbcb" stroke="none" stroke-opacity="1" x="526" y="28" width="3" height="181" />
	<rect fill="#cbcbcb" stroke="none" stroke-opacity="1" x="258" y="206" width="271" height="3" />
	<rect fill="#ffffc0" stroke="black" stroke-width="1" stroke-opacity="1" x="254" y="24" width="272" height="182" />
	<text font-family="Helvetica" font-size="8" fill="#000000" xml:space="preserve" font-weight="bold" text-anchor="middle" x="390" y="34">ISig1337</text>
	<line stroke="black" stroke-opacity="1" x1="254" y1="43" x2="526" y2="43" />
	<line stroke="black" stroke-opacity="1" x1="254" y1="51" x2="526" y2="51" />
	<text font-family="Helvetica" font-size="8" fill="#000000" xml:space="preserve" font-weight="bold" x="258" y="61">+</text>
	<text font-family="Helvetica" font-size="8" fill="#000000" xml:space="preserve" x="270" y="61">getBounds() : IBounds</text>
	<text font-family="Helvetica" font-size="8" fill="#000000" xml:space="preserve" font-weight="bold" x="258" y="78">+</text>
	<text font-family="Helvetica" font-size="8" fill="#000000" xml:space="preserve" x="270" y="78">getGraphics() : IGraphics</text>
	<text font-family="Helvetica" font-size="8" fill="#000000" xml:space="preserve" font-weight="bold" x="258" y="95">+</text>
	<text font-family="Helvetica" font-size="8" fill="#000000" xml:space="preserve" x="270" y="95">clear()</text>
	<text font-family="Helvetica" font-size="8" fill="#000000" xml:space="preserve" font-weight="bold" x="258" y="112">+</text>
	<text font-family="Helvetica" font-size="8" fill="#000000" xml:space="preserve" x="270" y="112">load(is : InputStream)</text>
	<text font-family="Helvetica" font-size="8" fill="#000000" xml:space="preserve" font-weight="bold" x="258" y="129">+</text>
	<text font-family="Helvetica" font-size="8" fill="#000000" xml:space="preserve" x="270" y="129">getStructure(id : long) : IStructure</text>
	<text font-family="Helvetica" font-size="8" fill="#000000" xml:space="preserve" font-weight="bold" x="258" y="146">+</text>
	<text font-family="Helvetica" font-size="8" fill="#000000" xml:space="preserve" x="270" y="146">getStructure(x : double, y : double) : IStructure</text>
	<text font-family="Helvetica" font-size="8" fill="#000000" xml:space="preserve" font-weight="bold" x="258" y="163">+</text>
	<text font-family="Helvetica" font-size="8" fill="#000000" xml:space="preserve" x="270" y="163">getStructureId(x : double, y : double) : IStructure</text>
	<text font-family="Helvetica" font-size="8" fill="#000000" xml:space="preserve" font-weight="bold" x="258" y="180">+</text>
	<text font-family="Helvetica" font-size="8" fill="#000000" xml:space="preserve" x="270" y="180">getStructureName(x : double, y : double) : IStructure</text>
	<text font-family="Helvetica" font-size="8" fill="#000000" xml:space="preserve" font-weight="bold" x="258" y="197">+</text>
	<text font-family="Helvetica" font-size="8" fill="#000000" xml:space="preserve" x="270" y="197">getItineraire(start : IBuilding, end : IBuilding) : IRoutes</text>
</g>
<g>
	<rect fill="#cbcbcb" stroke="none" stroke-opacity="1" x="277" y="245" width="3" height="61" />
	<rect fill="#cbcbcb" stroke="none" stroke-opacity="1" x="141" y="303" width="139" height="3" />
	<rect fill="#ffffc0" stroke="black" stroke-width="1" stroke-opacity="1" x="137" y="241" width="140" height="62" />
	<text font-family="Helvetica" font-size="8" fill="#000000" xml:space="preserve" font-weight="bold" text-anchor="middle" x="207" y="251">ILocalSig1337</text>
	<line stroke="black" stroke-opacity="1" x1="137" y1="260" x2="277" y2="260" />
	<line stroke="black" stroke-opacity="1" x1="137" y1="268" x2="277" y2="268" />
	<text font-family="Helvetica" font-size="8" fill="#000000" xml:space="preserve" font-weight="bold" x="141" y="278">+</text>
	<text font-family="Helvetica" font-size="8" fill="#000000" xml:space="preserve" x="153" y="278">getGraph() : IGraph</text>
	<text font-family="Helvetica" font-size="8" fill="#000000" xml:space="preserve" font-weight="bold" x="141" y="295">+</text>
	<text font-family="Helvetica" font-size="8" fill="#000000" xml:space="preserve" x="153" y="295">getTree() : ArbreDecision</text>
</g>
<g>
	<rect fill="#cbcbcb" stroke="none" stroke-opacity="1" x="442" y="248" width="3" height="61" />
	<rect fill="#cbcbcb" stroke="none" stroke-opacity="1" x="332" y="306" width="113" height="3" />
	<rect fill="#ffffc0" stroke="black" stroke-width="1" stroke-opacity="1" x="328" y="244" width="114" height="62" />
	<text font-family="Helvetica" font-size="8" fill="#000000" xml:space="preserve" font-weight="bold" text-anchor="middle" x="385" y="254">Sig1337Base</text>
	<line stroke="black" stroke-opacity="1" x1="328" y1="263" x2="442" y2="263" />
	<text font-family="Helvetica" font-size="8" fill="#000000" xml:space="preserve" font-weight="bold" x="332" y="273">#</text>
	<text font-family="Helvetica" font-size="8" fill="#000000" xml:space="preserve" x="344" y="273">bounds : Bounds</text>
	<text font-family="Helvetica" font-size="8" fill="#000000" xml:space="preserve" font-weight="bold" x="332" y="290">#</text>
	<text font-family="Helvetica" font-size="8" fill="#000000" xml:space="preserve" x="344" y="290">graphics : IGraphics</text>
	<line stroke="black" stroke-opacity="1" x1="328" y1="299" x2="442" y2="299" />
</g>
<g>
	<rect fill="#cbcbcb" stroke="none" stroke-opacity="1" x="265" y="360" width="3" height="61" />
	<rect fill="#cbcbcb" stroke="none" stroke-opacity="1" x="155" y="418" width="113" height="3" />
	<rect fill="#ffffc0" stroke="black" stroke-width="1" stroke-opacity="1" x="151" y="356" width="114" height="62" />
	<text font-family="Helvetica" font-size="8" fill="#000000" xml:space="preserve" font-weight="bold" text-anchor="middle" x="208" y="366">LocalSig1337</text>
	<line stroke="black" stroke-opacity="1" x1="151" y1="375" x2="265" y2="375" />
	<text font-family="Helvetica" font-size="8" fill="#000000" xml:space="preserve" font-weight="bold" x="155" y="385">-</text>
	<text font-family="Helvetica" font-size="8" fill="#000000" xml:space="preserve" x="167" y="385">graph : IGraph</text>
	<text font-family="Helvetica" font-size="8" fill="#000000" xml:space="preserve" font-weight="bold" x="155" y="402">-</text>
	<text font-family="Helvetica" font-size="8" fill="#000000" xml:space="preserve" x="167" y="402">tree : ArbreDecision</text>
	<line stroke="black" stroke-opacity="1" x1="151" y1="411" x2="265" y2="411" />
</g>
<g>
	<rect fill="#cbcbcb" stroke="none" stroke-opacity="1" x="569" y="247" width="3" height="33" />
	<rect fill="#cbcbcb" stroke="none" stroke-opacity="1" x="483" y="277" width="89" height="3" />
	<rect fill="#ffffc0" stroke="black" stroke-width="1" stroke-opacity="1" x="479" y="243" width="90" height="34" />
	<text font-family="Helvetica" font-size="8" fill="#000000" xml:space="preserve" font-weight="bold" text-anchor="middle" x="524" y="253">IRemoteSig1337</text>
	<line stroke="black" stroke-opacity="1" x1="479" y1="262" x2="569" y2="262" />
	<line stroke="black" stroke-opacity="1" x1="479" y1="270" x2="569" y2="270" />
</g>
<g>
	<rect fill="#cbcbcb" stroke="none" stroke-opacity="1" x="262" y="449" width="3" height="61" />
	<rect fill="#cbcbcb" stroke="none" stroke-opacity="1" x="156" y="507" width="109" height="3" />
	<rect fill="#ffffc0" stroke="black" stroke-width="1" stroke-opacity="1" x="152" y="445" width="110" height="62" />
	<text font-family="Helvetica" font-size="8" fill="#000000" xml:space="preserve" font-weight="bold" text-anchor="middle" x="207" y="455">AsyncTaskGetMap</text>
	<line stroke="black" stroke-opacity="1" x1="152" y1="464" x2="262" y2="464" />
	<text font-family="Helvetica" font-size="8" fill="#000000" xml:space="preserve" font-weight="bold" x="156" y="474">-</text>
	<text font-family="Helvetica" font-size="8" fill="#000000" xml:space="preserve" x="168" y="474">mContext : Context</text>
	<text font-family="Helvetica" font-size="8" fill="#000000" xml:space="preserve" font-weight="bold" x="156" y="491">-</text>
	<text font-family="Helvetica" font-size="8" fill="#000000" xml:space="preserve" x="168" y="491">serverIP : string</text>
	<line stroke="black" stroke-opacity="1" x1="152" y1="500" x2="262" y2="500" />
</g>
<g>
	<rect fill="#cbcbcb" stroke="none" stroke-opacity="1" x="481" y="440" width="3" height="79" />
	<rect fill="#cbcbcb" stroke="none" stroke-opacity="1" x="359" y="516" width="125" height="3" />
	<rect fill="#ffffc0" stroke="black" stroke-width="1" stroke-opacity="1" x="355" y="436" width="126" height="80" />
	<text font-family="Helvetica" font-size="8" fill="#000000" xml:space="preserve" font-weight="bold" text-anchor="middle" x="418" y="446">AsyncTaskGetLocation</text>
	<line stroke="black" stroke-opacity="1" x1="355" y1="455" x2="481" y2="455" />
	<text font-family="Helvetica" font-size="8" fill="#000000" xml:space="preserve" font-weight="bold" x="359" y="465">-</text>
	<text font-family="Helvetica" font-size="8" fill="#000000" xml:space="preserve" x="371" y="465">serverIP : string</text>
	<text font-family="Helvetica" font-size="8" fill="#000000" xml:space="preserve" font-weight="bold" x="359" y="482">-</text>
	<text font-family="Helvetica" font-size="8" fill="#000000" xml:space="preserve" x="371" y="482">lat : double</text>
	<text font-family="Helvetica" font-size="8" fill="#000000" xml:space="preserve" font-weight="bold" x="359" y="499">-</text>
	<text font-family="Helvetica" font-size="8" fill="#000000" xml:space="preserve" x="371" y="499">lon : double</text>
	<line stroke="black" stroke-opacity="1" x1="355" y1="508" x2="481" y2="508" />
</g>
<g>
	<line stroke="black" stroke-opacity="1" x1="420" y1="520" x2="420" y2="548" />
	<line stroke="black" stroke-opacity="1" x1="420" y1="554" x2="426" y2="548" />
	<line stroke="black" stroke-opacity="1" x1="420" y1="554" x2="414" y2="548" />
	<line stroke="black" stroke-opacity="1" x1="426" y1="548" x2="414" y2="548" />
</g>
<g>
	<line stroke="black" stroke-opacity="1" x1="459" y1="435" x2="467" y2="435" />
	<line stroke="black" stroke-opacity="1" x1="459" y1="435" x2="459" y2="426" />
	<line stroke-dasharray="4,4" stroke="black" stroke-opacity="1" x1="499" y1="397" x2="459" y2="435" />
</g>
<g>
	<line stroke-dasharray="4,4" stroke="black" stroke-opacity="1" x1="387" y1="243" x2="387" y2="215" />
	<line stroke="black" stroke-opacity="1" x1="388" y1="210" x2="381" y2="215" />
	<line stroke="black" stroke-opacity="1" x1="388" y1="210" x2="393" y2="216" />
	<line stroke="black" stroke-opacity="1" x1="381" y1="215" x2="393" y2="216" />
</g>
<g>
	<line stroke="black" stroke-opacity="1" x1="260" y1="355" x2="325" y2="313" />
	<line stroke="black" stroke-opacity="1" x1="331" y1="310" x2="322" y2="308" />
	<line stroke="black" stroke-opacity="1" x1="331" y1="310" x2="329" y2="318" />
	<line stroke="black" stroke-opacity="1" x1="322" y1="308" x2="329" y2="318" />
</g>
<g>
	<line stroke-dasharray="4,4" stroke="black" stroke-opacity="1" x1="209" y1="355" x2="209" y2="313" />
	<line stroke="black" stroke-opacity="1" x1="209" y1="307" x2="203" y2="313" />
	<line stroke="black" stroke-opacity="1" x1="209" y1="307" x2="215" y2="313" />
	<line stroke="black" stroke-opacity="1" x1="203" y1="313" x2="215" y2="313" />
</g>
<g>
	<line stroke="black" stroke-opacity="1" x1="488" y1="346" x2="440" y2="313" />
	<line stroke="black" stroke-opacity="1" x1="436" y1="310" x2="437" y2="318" />
	<line stroke="black" stroke-opacity="1" x1="436" y1="310" x2="444" y2="308" />
	<line stroke="black" stroke-opacity="1" x1="437" y1="318" x2="444" y2="308" />
</g>
<g>
	<line stroke-dasharray="4,4" stroke="black" stroke-opacity="1" x1="526" y1="346" x2="526" y2="287" />
	<line stroke="black" stroke-opacity="1" x1="526" y1="281" x2="520" y2="287" />
	<line stroke="black" stroke-opacity="1" x1="526" y1="281" x2="532" y2="287" />
	<line stroke="black" stroke-opacity="1" x1="520" y1="287" x2="532" y2="287" />
</g>
<g>
	<line stroke="black" stroke-opacity="1" x1="266" y1="504" x2="380" y2="555" />
	<line stroke="black" stroke-opacity="1" x1="386" y1="558" x2="382" y2="550" />
	<line stroke="black" stroke-opacity="1" x1="386" y1="558" x2="378" y2="561" />
	<line stroke="black" stroke-opacity="1" x1="382" y1="550" x2="378" y2="561" />
</g>
<g>
	<line stroke="black" stroke-opacity="1" x1="508" y1="242" x2="483" y2="214" />
	<line stroke="black" stroke-opacity="1" x1="479" y1="210" x2="478" y2="218" />
	<line stroke="black" stroke-opacity="1" x1="479" y1="210" x2="487" y2="210" />
	<line stroke="black" stroke-opacity="1" x1="478" y1="218" x2="487" y2="210" />
</g>
<g>
	<line stroke="black" stroke-opacity="1" x1="245" y1="240" x2="272" y2="214" />
	<line stroke="black" stroke-opacity="1" x1="277" y1="210" x2="268" y2="209" />
	<line stroke="black" stroke-opacity="1" x1="277" y1="210" x2="276" y2="218" />
	<line stroke="black" stroke-opacity="1" x1="268" y1="209" x2="276" y2="218" />
</g>
<g>
	<rect fill="#cbcbcb" stroke="none" stroke-opacity="1" x="660" y="445" width="3" height="79" />
	<rect fill="#cbcbcb" stroke="none" stroke-opacity="1" x="538" y="521" width="125" height="3" />
	<rect fill="#ffffc0" stroke="black" stroke-width="1" stroke-opacity="1" x="534" y="441" width="126" height="80" />
	<text font-family="Helvetica" font-size="8" fill="#000000" xml:space="preserve" font-weight="bold" text-anchor="middle" x="597" y="451">AsyncTaskGetItineraire</text>
	<line stroke="black" stroke-opacity="1" x1="534" y1="460" x2="660" y2="460" />
	<text font-family="Helvetica" font-size="8" fill="#000000" xml:space="preserve" font-weight="bold" x="538" y="470">-</text>
	<text font-family="Helvetica" font-size="8" fill="#000000" xml:space="preserve" x="550" y="470">serverIP : string</text>
	<text font-family="Helvetica" font-size="8" fill="#000000" xml:space="preserve" font-weight="bold" x="538" y="487">-</text>
	<text font-family="Helvetica" font-size="8" fill="#000000" xml:space="preserve" x="550" y="487">start : long</text>
	<text font-family="Helvetica" font-size="8" fill="#000000" xml:space="preserve" font-weight="bold" x="538" y="504">-</text>
	<text font-family="Helvetica" font-size="8" fill="#000000" xml:space="preserve" x="550" y="504">end : long</text>
	<line stroke="black" stroke-opacity="1" x1="534" y1="513" x2="660" y2="513" />
</g>
<g>
	<line stroke="black" stroke-opacity="1" x1="533" y1="514" x2="460" y2="552" />
	<line stroke="black" stroke-opacity="1" x1="455" y1="555" x2="463" y2="557" />
	<line stroke="black" stroke-opacity="1" x1="455" y1="555" x2="457" y2="546" />
	<line stroke="black" stroke-opacity="1" x1="463" y1="557" x2="457" y2="546" />
</g>
<g>
	<line stroke="black" stroke-opacity="1" x1="570" y1="440" x2="571" y2="431" />
	<line stroke="black" stroke-opacity="1" x1="570" y1="440" x2="561" y2="438" />
	<line stroke-dasharray="4,4" stroke="black" stroke-opacity="1" x1="542" y1="397" x2="570" y2="440" />
</g>
</svg>
