<?xml version="1.0" encoding="UTF-8" standalone="no"?>
<!-- Created with Bouml (http://bouml.free.fr/) -->
<!DOCTYPE svg PUBLIC "-//W3C//DTD SVG 1.1//EN" "http://www.w3.org/Graphics/SVG/1.1/DTD/svg11.dtd">
<svg width="373" height="368" version="1.1" xmlns="http://www.w3.org/2000/svg">
<g>
	<rect fill="#cbcbcb" stroke="none" stroke-opacity="1" x="132" y="235" width="3" height="33" />
	<rect fill="#cbcbcb" stroke="none" stroke-opacity="1" x="82" y="265" width="53" height="3" />
	<rect fill="#ffffc0" stroke="black" stroke-width="1" stroke-opacity="1" x="78" y="231" width="54" height="34" />
	<text font-family="Helvetica" font-size="8" fill="#000000" xml:space="preserve" font-weight="bold" text-anchor="middle" x="105" y="241">NullNode</text>
	<line stroke="black" stroke-opacity="1" x1="78" y1="250" x2="132" y2="250" />
	<line stroke="black" stroke-opacity="1" x1="78" y1="258" x2="132" y2="258" />
</g>
<g>
	<rect fill="#cbcbcb" stroke="none" stroke-opacity="1" x="292" y="310" width="3" height="45" />
	<rect fill="#cbcbcb" stroke="none" stroke-opacity="1" x="86" y="352" width="209" height="3" />
	<rect fill="#ffffc0" stroke="black" stroke-width="1" stroke-opacity="1" x="82" y="306" width="210" height="46" />
	<text font-family="Helvetica" font-size="8" fill="#000000" xml:space="preserve" font-weight="bold" text-anchor="middle" x="187" y="316">BoundingBox</text>
	<line stroke="black" stroke-opacity="1" x1="82" y1="325" x2="292" y2="325" />
	<line stroke="black" stroke-opacity="1" x1="82" y1="333" x2="292" y2="333" />
	<text font-family="Helvetica" font-size="8" fill="#000000" xml:space="preserve" font-weight="bold" x="86" y="343">+</text>
	<text font-family="Helvetica" font-size="8" fill="#000000" xml:space="preserve" x="98" y="343">toXML(buff : StringBuffer, indent : string)</text>
</g>
<g>
	<rect fill="#cbcbcb" stroke="none" stroke-opacity="1" x="357" y="28" width="3" height="79" />
	<rect fill="#cbcbcb" stroke="none" stroke-opacity="1" x="29" y="104" width="331" height="3" />
	<rect fill="#ffffc0" stroke="black" stroke-width="1" stroke-opacity="1" x="25" y="24" width="332" height="80" />
	<text font-family="Helvetica" font-size="8" fill="#000000" xml:space="preserve" font-weight="bold" text-anchor="middle" x="191" y="34">ArbreDecision</text>
	<line stroke="black" stroke-opacity="1" x1="25" y1="43" x2="357" y2="43" />
	<line stroke="black" stroke-opacity="1" x1="25" y1="51" x2="357" y2="51" />
	<text font-family="Helvetica" font-size="8" fill="#000000" xml:space="preserve" font-weight="bold" x="29" y="61">+</text>
	<text font-family="Helvetica" font-size="8" fill="#000000" xml:space="preserve" text-decoration="underline" x="41" y="61">create(buildings : Collection&lt;Building&gt;) : ArbreDecision</text>
	<text font-family="Helvetica" font-size="8" fill="#000000" xml:space="preserve" font-weight="bold" x="29" y="78">+</text>
	<text font-family="Helvetica" font-size="8" fill="#000000" xml:space="preserve" text-decoration="underline" x="41" y="78">create(buildings : Collection&lt;Building&gt;, depth : int) : ArbreDecision</text>
	<text font-family="Helvetica" font-size="8" fill="#000000" xml:space="preserve" font-weight="bold" x="29" y="95">+</text>
	<text font-family="Helvetica" font-size="8" fill="#000000" xml:space="preserve" x="41" y="95">toXML(buff : StringBuffer, indent : string)</text>
</g>
<g>
	<rect fill="#cbcbcb" stroke="none" stroke-opacity="1" x="303" y="235" width="3" height="33" />
	<rect fill="#cbcbcb" stroke="none" stroke-opacity="1" x="267" y="265" width="39" height="3" />
	<rect fill="#ffffc0" stroke="black" stroke-width="1" stroke-opacity="1" x="263" y="231" width="40" height="34" />
	<text font-family="Helvetica" font-size="8" fill="#000000" xml:space="preserve" font-weight="bold" text-anchor="middle" x="283" y="241">Node.</text>
	<line stroke="black" stroke-opacity="1" x1="263" y1="250" x2="303" y2="250" />
	<line stroke="black" stroke-opacity="1" x1="263" y1="258" x2="303" y2="258" />
</g>
<g>
	<rect fill="#cbcbcb" stroke="none" stroke-opacity="1" x="215" y="235" width="3" height="33" />
	<rect fill="#cbcbcb" stroke="none" stroke-opacity="1" x="179" y="265" width="39" height="3" />
	<rect fill="#ffffc0" stroke="black" stroke-width="1" stroke-opacity="1" x="175" y="231" width="40" height="34" />
	<text font-family="Helvetica" font-size="8" fill="#000000" xml:space="preserve" font-weight="bold" text-anchor="middle" x="195" y="241">Leaf</text>
	<line stroke="black" stroke-opacity="1" x1="175" y1="250" x2="215" y2="250" />
	<line stroke="black" stroke-opacity="1" x1="175" y1="258" x2="215" y2="258" />
</g>
<g>
	<rect fill="#cbcbcb" stroke="none" stroke-opacity="1" x="297" y="146" width="3" height="45" />
	<rect fill="#cbcbcb" stroke="none" stroke-opacity="1" x="91" y="188" width="209" height="3" />
	<rect fill="#ffffc0" stroke="black" stroke-width="1" stroke-opacity="1" x="87" y="142" width="210" height="46" />
	<text font-family="Helvetica" font-size="8" fill="#000000" xml:space="preserve" font-weight="bold" text-anchor="middle" x="192" y="152">INode</text>
	<line stroke="black" stroke-opacity="1" x1="87" y1="161" x2="297" y2="161" />
	<line stroke="black" stroke-opacity="1" x1="87" y1="169" x2="297" y2="169" />
	<text font-family="Helvetica" font-size="8" fill="#000000" xml:space="preserve" font-weight="bold" x="91" y="179">+</text>
	<text font-family="Helvetica" font-size="8" fill="#000000" xml:space="preserve" x="103" y="179">toXML(buff : StringBuffer, indent : string)</text>
</g>
<g>
	<line stroke-dasharray="4,4" stroke="black" stroke-opacity="1" x1="125" y1="230" x2="159" y2="196" />
	<line stroke="black" stroke-opacity="1" x1="164" y1="192" x2="155" y2="191" />
	<line stroke="black" stroke-opacity="1" x1="164" y1="192" x2="163" y2="200" />
	<line stroke="black" stroke-opacity="1" x1="155" y1="191" x2="163" y2="200" />
</g>
<g>
	<line stroke-dasharray="4,4" stroke="black" stroke-opacity="1" x1="196" y1="230" x2="194" y2="197" />
	<line stroke="black" stroke-opacity="1" x1="194" y1="192" x2="188" y2="198" />
	<line stroke="black" stroke-opacity="1" x1="194" y1="192" x2="200" y2="197" />
	<line stroke="black" stroke-opacity="1" x1="188" y1="198" x2="200" y2="197" />
</g>
<g>
	<line stroke-dasharray="4,4" stroke="black" stroke-opacity="1" x1="263" y1="230" x2="225" y2="196" />
	<line stroke="black" stroke-opacity="1" x1="221" y1="192" x2="221" y2="200" />
	<line stroke="black" stroke-opacity="1" x1="221" y1="192" x2="229" y2="191" />
	<line stroke="black" stroke-opacity="1" x1="221" y1="200" x2="229" y2="191" />
</g>
</svg>
