<?xml version="1.0" encoding="UTF-8" standalone="no"?>
<!-- Created with Bouml (http://bouml.free.fr/) -->
<!DOCTYPE svg PUBLIC "-//W3C//DTD SVG 1.1//EN" "http://www.w3.org/Graphics/SVG/1.1/DTD/svg11.dtd">
<svg width="828" height="461" version="1.1" xmlns="http://www.w3.org/2000/svg">
<g>
	<rect fill="#cbcbcb" stroke="none" stroke-opacity="1" x="315" y="228" width="3" height="123" />
	<rect fill="#cbcbcb" stroke="none" stroke-opacity="1" x="201" y="348" width="117" height="3" />
	<rect fill="#ffffc0" stroke="black" stroke-width="1" stroke-opacity="1" x="197" y="224" width="118" height="124" />
	<text font-family="Helvetica" font-size="8" fill="#000000" xml:space="preserve" font-weight="bold" text-anchor="middle" x="256" y="234">Structure</text>
	<line stroke="black" stroke-opacity="1" x1="197" y1="243" x2="315" y2="243" />
	<text font-family="Helvetica" font-size="8" fill="#000000" xml:space="preserve" font-weight="bold" x="201" y="253">-</text>
	<text font-family="Helvetica" font-size="8" fill="#000000" xml:space="preserve" x="213" y="253">id : long</text>
	<text font-family="Helvetica" font-size="8" fill="#000000" xml:space="preserve" font-weight="bold" x="201" y="270">-</text>
	<text font-family="Helvetica" font-size="8" fill="#000000" xml:space="preserve" x="213" y="270">name : string</text>
	<text font-family="Helvetica" font-size="8" fill="#000000" xml:space="preserve" font-weight="bold" x="201" y="287">-</text>
	<text font-family="Helvetica" font-size="8" fill="#000000" xml:space="preserve" x="213" y="287">nodes : Node[]</text>
	<text font-family="Helvetica" font-size="8" fill="#000000" xml:space="preserve" font-weight="bold" x="201" y="304">-</text>
	<text font-family="Helvetica" font-size="8" fill="#000000" xml:space="preserve" x="213" y="304">holes : List&lt;Hole&gt;</text>
	<text font-family="Helvetica" font-size="8" fill="#000000" xml:space="preserve" font-weight="bold" x="201" y="321">-</text>
	<text font-family="Helvetica" font-size="8" fill="#000000" xml:space="preserve" x="213" y="321">geom : string</text>
	<line stroke="black" stroke-opacity="1" x1="197" y1="330" x2="315" y2="330" />
	<text font-family="Helvetica" font-size="8" fill="#000000" xml:space="preserve" font-weight="bold" x="201" y="340">+</text>
	<text font-family="Helvetica" font-size="8" fill="#000000" xml:space="preserve" x="213" y="340">addHole(hole : Hole)</text>
</g>
<g>
	<rect fill="#cbcbcb" stroke="none" stroke-opacity="1" x="356" y="18" width="3" height="141" />
	<rect fill="#cbcbcb" stroke="none" stroke-opacity="1" x="158" y="156" width="201" height="3" />
	<rect fill="#ffffc0" stroke="black" stroke-width="1" stroke-opacity="1" x="154" y="14" width="202" height="142" />
	<text font-family="Helvetica" font-size="8" fill="#000000" xml:space="preserve" font-weight="bold" text-anchor="middle" x="255" y="24">Node</text>
	<line stroke="black" stroke-opacity="1" x1="154" y1="33" x2="356" y2="33" />
	<text font-family="Helvetica" font-size="8" fill="#000000" xml:space="preserve" font-weight="bold" x="158" y="43">-</text>
	<text font-family="Helvetica" font-size="8" fill="#000000" xml:space="preserve" x="170" y="43">id : long</text>
	<text font-family="Helvetica" font-size="8" fill="#000000" xml:space="preserve" font-weight="bold" x="158" y="60">-</text>
	<text font-family="Helvetica" font-size="8" fill="#000000" xml:space="preserve" x="170" y="60">latitude : double</text>
	<text font-family="Helvetica" font-size="8" fill="#000000" xml:space="preserve" font-weight="bold" x="158" y="77">-</text>
	<text font-family="Helvetica" font-size="8" fill="#000000" xml:space="preserve" x="170" y="77">longitude : double</text>
	<text font-family="Helvetica" font-size="8" fill="#000000" xml:space="preserve" font-weight="bold" x="158" y="94">-</text>
	<text font-family="Helvetica" font-size="8" fill="#000000" xml:space="preserve" x="170" y="94">geom : string</text>
	<line stroke="black" stroke-opacity="1" x1="154" y1="103" x2="356" y2="103" />
	<text font-family="Helvetica" font-size="8" fill="#000000" xml:space="preserve" font-weight="bold" x="158" y="113">+</text>
	<text font-family="Helvetica" font-size="8" fill="#000000" xml:space="preserve" x="170" y="113">toPoint() : Point</text>
	<text font-family="Helvetica" font-size="8" fill="#000000" xml:space="preserve" font-weight="bold" x="158" y="130">+</text>
	<text font-family="Helvetica" font-size="8" fill="#000000" xml:space="preserve" x="170" y="130">toPointsArray(nodes : Node[]) : Point[]</text>
	<text font-family="Helvetica" font-size="8" fill="#000000" xml:space="preserve" font-weight="bold" x="158" y="147">+</text>
	<text font-family="Helvetica" font-size="8" fill="#000000" xml:space="preserve" x="170" y="147">toPolygone(nodes : Node[]) : Polygone</text>
</g>
<g>
	<rect fill="#cbcbcb" stroke="none" stroke-opacity="1" x="307" y="403" width="3" height="45" />
	<rect fill="#cbcbcb" stroke="none" stroke-opacity="1" x="211" y="445" width="99" height="3" />
	<rect fill="#ffffc0" stroke="black" stroke-width="1" stroke-opacity="1" x="207" y="399" width="100" height="46" />
	<text font-family="Helvetica" font-size="8" fill="#000000" xml:space="preserve" font-weight="bold" text-anchor="middle" x="257" y="409">Hole</text>
	<line stroke="black" stroke-opacity="1" x1="207" y1="418" x2="307" y2="418" />
	<text font-family="Helvetica" font-size="8" fill="#000000" xml:space="preserve" font-weight="bold" x="211" y="428">-</text>
	<text font-family="Helvetica" font-size="8" fill="#000000" xml:space="preserve" x="223" y="428">idStructure : long</text>
	<line stroke="black" stroke-opacity="1" x1="207" y1="437" x2="307" y2="437" />
</g>
<g>
	<rect fill="#cbcbcb" stroke="none" stroke-opacity="1" x="102" y="217" width="3" height="33" />
	<rect fill="#cbcbcb" stroke="none" stroke-opacity="1" x="66" y="247" width="39" height="3" />
	<rect fill="#ffffc0" stroke="black" stroke-width="1" stroke-opacity="1" x="62" y="213" width="40" height="34" />
	<text font-family="Helvetica" font-size="8" fill="#000000" xml:space="preserve" font-weight="bold" text-anchor="middle" x="82" y="223">Basin</text>
	<line stroke="black" stroke-opacity="1" x1="62" y1="232" x2="102" y2="232" />
	<line stroke="black" stroke-opacity="1" x1="62" y1="240" x2="102" y2="240" />
</g>
<g>
	<rect fill="#cbcbcb" stroke="none" stroke-opacity="1" x="85" y="266" width="3" height="33" />
	<rect fill="#cbcbcb" stroke="none" stroke-opacity="1" x="49" y="296" width="39" height="3" />
	<rect fill="#ffffc0" stroke="black" stroke-width="1" stroke-opacity="1" x="45" y="262" width="40" height="34" />
	<text font-family="Helvetica" font-size="8" fill="#000000" xml:space="preserve" font-weight="bold" text-anchor="middle" x="65" y="272">Forest</text>
	<line stroke="black" stroke-opacity="1" x1="45" y1="281" x2="85" y2="281" />
	<line stroke="black" stroke-opacity="1" x1="45" y1="289" x2="85" y2="289" />
</g>
<g>
	<rect fill="#cbcbcb" stroke="none" stroke-opacity="1" x="91" y="31" width="3" height="113" />
	<rect fill="#cbcbcb" stroke="none" stroke-opacity="1" x="7" y="141" width="87" height="3" />
	<rect fill="#ffffc0" stroke="black" stroke-width="1" stroke-opacity="1" x="3" y="27" width="88" height="114" />
	<text font-family="Helvetica" font-size="8" fill="#000000" xml:space="preserve" font-weight="bold" text-anchor="middle" x="47" y="37">Road</text>
	<line stroke="black" stroke-opacity="1" x1="3" y1="46" x2="91" y2="46" />
	<text font-family="Helvetica" font-size="8" fill="#000000" xml:space="preserve" font-weight="bold" x="7" y="56">-</text>
	<text font-family="Helvetica" font-size="8" fill="#000000" xml:space="preserve" x="19" y="56">id : long</text>
	<text font-family="Helvetica" font-size="8" fill="#000000" xml:space="preserve" font-weight="bold" x="7" y="73">-</text>
	<text font-family="Helvetica" font-size="8" fill="#000000" xml:space="preserve" x="19" y="73">name : string</text>
	<text font-family="Helvetica" font-size="8" fill="#000000" xml:space="preserve" font-weight="bold" x="7" y="90">-</text>
	<text font-family="Helvetica" font-size="8" fill="#000000" xml:space="preserve" x="19" y="90">nodes : Node[]</text>
	<text font-family="Helvetica" font-size="8" fill="#000000" xml:space="preserve" font-weight="bold" x="7" y="107">-</text>
	<text font-family="Helvetica" font-size="8" fill="#000000" xml:space="preserve" x="19" y="107">type : int</text>
	<text font-family="Helvetica" font-size="8" fill="#000000" xml:space="preserve" font-weight="bold" x="7" y="124">-</text>
	<text font-family="Helvetica" font-size="8" fill="#000000" xml:space="preserve" x="19" y="124">geom : string</text>
	<line stroke="black" stroke-opacity="1" x1="3" y1="133" x2="91" y2="133" />
</g>
<g>
	<rect fill="#cbcbcb" stroke="none" stroke-opacity="1" x="508" y="165" width="3" height="45" />
	<rect fill="#cbcbcb" stroke="none" stroke-opacity="1" x="410" y="207" width="101" height="3" />
	<rect fill="#ffffc0" stroke="black" stroke-width="1" stroke-opacity="1" x="406" y="161" width="102" height="46" />
	<text font-family="Helvetica" font-size="8" fill="#000000" xml:space="preserve" font-weight="bold" text-anchor="middle" x="457" y="171">SQLCreate</text>
	<line stroke="black" stroke-opacity="1" x1="406" y1="180" x2="508" y2="180" />
	<line stroke="black" stroke-opacity="1" x1="406" y1="188" x2="508" y2="188" />
	<text font-family="Helvetica" font-size="8" fill="#000000" xml:space="preserve" font-weight="bold" x="410" y="198">+</text>
	<text font-family="Helvetica" font-size="8" fill="#000000" xml:space="preserve" x="422" y="198">createDataBase()</text>
</g>
<g>
	<rect fill="#cbcbcb" stroke="none" stroke-opacity="1" x="760" y="274" width="3" height="55" />
	<rect fill="#cbcbcb" stroke="none" stroke-opacity="1" x="652" y="326" width="111" height="3" />
	<rect fill="#ffffc0" stroke="black" stroke-width="1" stroke-opacity="1" x="648" y="270" width="112" height="56" />
	<text font-family="Helvetica" font-size="8" fill="#000000" xml:space="preserve" font-weight="bold" text-anchor="middle" x="704" y="280">OSMHandler</text>
	<line stroke="black" stroke-opacity="1" x1="648" y1="289" x2="760" y2="289" />
	<text font-family="Helvetica" font-size="8" fill="#000000" xml:space="preserve" font-weight="bold" x="652" y="299">-</text>
	<text font-family="Helvetica" font-size="8" fill="#000000" xml:space="preserve" x="664" y="299">bounds : string</text>
	<line stroke="black" stroke-opacity="1" x1="648" y1="308" x2="760" y2="308" />
	<text font-family="Helvetica" font-size="8" fill="#000000" xml:space="preserve" font-weight="bold" x="652" y="318">+</text>
	<text font-family="Helvetica" font-size="8" fill="#000000" xml:space="preserve" x="664" y="318">getBounds() : string</text>
</g>
<g>
	<rect fill="#cbcbcb" stroke="none" stroke-opacity="1" x="754" y="356" width="3" height="61" />
	<rect fill="#cbcbcb" stroke="none" stroke-opacity="1" x="370" y="414" width="387" height="3" />
	<rect fill="#ffffc0" stroke="black" stroke-width="1" stroke-opacity="1" x="366" y="352" width="388" height="62" />
	<text font-family="Helvetica" font-size="8" fill="#000000" xml:space="preserve" font-weight="bold" text-anchor="middle" x="560" y="362">LocationHelper</text>
	<line stroke="black" stroke-opacity="1" x1="366" y1="371" x2="754" y2="371" />
	<line stroke="black" stroke-opacity="1" x1="366" y1="379" x2="754" y2="379" />
	<text font-family="Helvetica" font-size="8" fill="#000000" xml:space="preserve" font-weight="bold" x="370" y="389">+</text>
	<text font-family="Helvetica" font-size="8" fill="#000000" xml:space="preserve" text-decoration="underline" x="382" y="389">getNearestBuilding(latitude : double, longitude : double, nullable : bool) : string</text>
	<text font-family="Helvetica" font-size="8" fill="#000000" xml:space="preserve" font-weight="bold" x="370" y="406">+</text>
	<text font-family="Helvetica" font-size="8" fill="#000000" xml:space="preserve" text-decoration="underline" x="382" y="406">getDirection(batimentSource : string, batimentDest : string) : string</text>
</g>
<g>
	<line stroke="black" stroke-opacity="1" x1="293" y1="352" x2="284" y2="398" />
	<polygon fill="#000000" stroke="black" stroke-opacity="1" points="293,352 297,359 290,363 285,356" />
</g>
<g>
	<line stroke="black" stroke-opacity="1" x1="106" y1="239" x2="190" y2="265" />
	<line stroke="black" stroke-opacity="1" x1="196" y1="267" x2="192" y2="259" />
	<line stroke="black" stroke-opacity="1" x1="196" y1="267" x2="188" y2="270" />
	<line stroke="black" stroke-opacity="1" x1="192" y1="259" x2="188" y2="270" />
</g>
<g>
	<line stroke="black" stroke-opacity="1" x1="89" y1="281" x2="190" y2="284" />
	<line stroke="black" stroke-opacity="1" x1="196" y1="285" x2="190" y2="278" />
	<line stroke="black" stroke-opacity="1" x1="196" y1="285" x2="189" y2="290" />
	<line stroke="black" stroke-opacity="1" x1="190" y1="278" x2="189" y2="290" />
</g>
<g>
	<line stroke="black" stroke-opacity="1" x1="232" y1="398" x2="227" y2="357" />
	<line stroke="black" stroke-opacity="1" x1="227" y1="352" x2="221" y2="358" />
	<line stroke="black" stroke-opacity="1" x1="227" y1="352" x2="233" y2="357" />
	<line stroke="black" stroke-opacity="1" x1="221" y1="358" x2="233" y2="357" />
</g>
<g>
	<line stroke="black" stroke-opacity="1" x1="257" y1="223" x2="257" y2="160" />
	<polygon fill="#000000" stroke="black" stroke-opacity="1" points="257,223 251,217 257,211 263,217" />
</g>
<g>
	<line stroke="black" stroke-opacity="1" x1="95" y1="86" x2="153" y2="86" />
	<polygon fill="#000000" stroke="black" stroke-opacity="1" points="95,86 101,80 107,86 101,92" />
</g>
<g>
	<rect fill="#cbcbcb" stroke="none" stroke-opacity="1" x="140" y="328" width="3" height="45" />
	<rect fill="#cbcbcb" stroke="none" stroke-opacity="1" x="38" y="370" width="105" height="3" />
	<rect fill="#ffffc0" stroke="black" stroke-width="1" stroke-opacity="1" x="34" y="324" width="106" height="46" />
	<text font-family="Helvetica" font-size="8" fill="#000000" xml:space="preserve" font-weight="bold" text-anchor="middle" x="87" y="334">Building</text>
	<line stroke="black" stroke-opacity="1" x1="34" y1="343" x2="140" y2="343" />
	<text font-family="Helvetica" font-size="8" fill="#000000" xml:space="preserve" font-weight="bold" x="38" y="353">-</text>
	<text font-family="Helvetica" font-size="8" fill="#000000" xml:space="preserve" x="50" y="353">neighbors : Node[]</text>
	<line stroke="black" stroke-opacity="1" x1="34" y1="362" x2="140" y2="362" />
</g>
<g>
	<rect fill="#cbcbcb" stroke="none" stroke-opacity="1" x="705" y="24" width="3" height="79" />
	<rect fill="#cbcbcb" stroke="none" stroke-opacity="1" x="411" y="100" width="297" height="3" />
	<rect fill="#ffffc0" stroke="black" stroke-width="1" stroke-opacity="1" x="407" y="20" width="298" height="80" />
	<text font-family="Helvetica" font-size="8" fill="#000000" xml:space="preserve" font-weight="bold" text-anchor="middle" x="556" y="30">SQLHelper</text>
	<line stroke="black" stroke-opacity="1" x1="407" y1="39" x2="705" y2="39" />
	<line stroke="black" stroke-opacity="1" x1="407" y1="47" x2="705" y2="47" />
	<text font-family="Helvetica" font-size="8" fill="#000000" xml:space="preserve" font-weight="bold" x="411" y="57">+</text>
	<text font-family="Helvetica" font-size="8" fill="#000000" xml:space="preserve" x="423" y="57">getArray(array : Array) : int[]</text>
	<text font-family="Helvetica" font-size="8" fill="#000000" xml:space="preserve" font-weight="bold" x="411" y="74">+</text>
	<text font-family="Helvetica" font-size="8" fill="#000000" xml:space="preserve" x="423" y="74">getArray(array : Array) : long[]</text>
	<text font-family="Helvetica" font-size="8" fill="#000000" xml:space="preserve" font-weight="bold" x="411" y="91">+</text>
	<text font-family="Helvetica" font-size="8" fill="#000000" xml:space="preserve" x="423" y="91">getArray(array : Array, nodes : Map&lt;Long, Node&gt;) : Node[]</text>
</g>
<g>
	<line stroke="black" stroke-opacity="1" x1="144" y1="327" x2="190" y2="310" />
	<line stroke="black" stroke-opacity="1" x1="196" y1="308" x2="188" y2="304" />
	<line stroke="black" stroke-opacity="1" x1="196" y1="308" x2="192" y2="315" />
	<line stroke="black" stroke-opacity="1" x1="188" y1="304" x2="192" y2="315" />
</g>
<g>
	<line stroke="black" stroke-opacity="1" x1="520" y1="104" x2="511" y2="105" />
	<line stroke="black" stroke-opacity="1" x1="520" y1="104" x2="521" y2="112" />
	<line stroke-dasharray="4,4" stroke="black" stroke-opacity="1" x1="477" y1="160" x2="520" y2="104" />
</g>
<g>
	<line stroke="black" stroke-opacity="1" x1="558" y1="104" x2="552" y2="110" />
	<line stroke="black" stroke-opacity="1" x1="558" y1="104" x2="564" y2="109" />
	<line stroke-dasharray="4,4" stroke="black" stroke-opacity="1" x1="561" y1="351" x2="558" y2="104" />
</g>
<g>
	<rect fill="#cbcbcb" stroke="none" stroke-opacity="1" x="812" y="164" width="3" height="45" />
	<rect fill="#cbcbcb" stroke="none" stroke-opacity="1" x="598" y="206" width="217" height="3" />
	<rect fill="#ffffc0" stroke="black" stroke-width="1" stroke-opacity="1" x="594" y="160" width="218" height="46" />
	<text font-family="Helvetica" font-size="8" fill="#000000" xml:space="preserve" font-weight="bold" text-anchor="middle" x="703" y="170">SQLToXML</text>
	<line stroke="black" stroke-opacity="1" x1="594" y1="179" x2="812" y2="179" />
	<line stroke="black" stroke-opacity="1" x1="594" y1="187" x2="812" y2="187" />
	<text font-family="Helvetica" font-size="8" fill="#000000" xml:space="preserve" font-weight="bold" x="598" y="197">+</text>
	<text font-family="Helvetica" font-size="8" fill="#000000" xml:space="preserve" x="610" y="197">process(filename : string, isRemote : bool)</text>
</g>
<g>
	<line stroke="black" stroke-opacity="1" x1="609" y1="104" x2="609" y2="112" />
	<line stroke="black" stroke-opacity="1" x1="609" y1="104" x2="617" y2="103" />
	<line stroke-dasharray="4,4" stroke="black" stroke-opacity="1" x1="674" y1="159" x2="609" y2="104" />
</g>
<g>
	<line stroke="black" stroke-opacity="1" x1="705" y1="210" x2="705" y2="269" />
	<polygon fill="#ffffff" stroke="black" stroke-opacity="1" points="705,210 711,216 705,222 699,216" />
</g>
<g>
	<text font-family="Helvetica" font-size="8" fill="#000000" xml:space="preserve" x="270" y="388">1</text>
</g>
<g>
	<text font-family="Helvetica" font-size="8" fill="#000000" xml:space="preserve" x="278" y="361">*</text>
</g>
<g>
	<text font-family="Helvetica" font-size="8" fill="#000000" xml:space="preserve" x="243" y="167">*</text>
</g>
<g>
	<text font-family="Helvetica" font-size="8" fill="#000000" xml:space="preserve" x="231" y="213">1..*</text>
</g>
<g>
	<text font-family="Helvetica" font-size="8" fill="#000000" xml:space="preserve" x="139" y="98">*</text>
</g>
<g>
	<text font-family="Helvetica" font-size="8" fill="#000000" xml:space="preserve" x="107" y="98">1..*</text>
</g>
<g>
	<text font-family="Helvetica" font-size="8" fill="#000000" xml:space="preserve" x="693" y="259">*</text>
</g>
<g>
	<text font-family="Helvetica" font-size="8" fill="#000000" xml:space="preserve" x="691" y="223">1</text>
</g>
</svg>
